<svg width="690" height="600" viewBox="0 0 690 600" fill="none" xmlns="http://www.w3.org/2000/svg">
<rect width="690" height="600" rx="16" fill="url(#paint0_linear_776_101523)"/>
<rect x="138" y="162" width="414" height="276" rx="3.45" fill="#EDEDED"/>
<path d="M138 165.45C138 163.545 139.545 162 141.45 162H548.55C550.455 162 552 163.545 552 165.45V182.7H138V165.45Z" fill="white"/>
<circle cx="151.8" cy="172.35" r="3.45" fill="#EE6F64"/>
<circle cx="162.149" cy="172.35" r="3.45" fill="#F7C154"/>
<circle cx="172.499" cy="172.35" r="3.45" fill="#66C759"/>
<rect x="172.5" y="203.4" width="58.65" height="13.8" rx="5.175" fill="#B9B9B9"/>
<rect x="267.375" y="203.4" width="41.4" height="13.8" rx="5.175" fill="#B9B9B9" fill-opacity="0.5"/>
<rect x="319.125" y="203.4" width="41.4" height="13.8" rx="5.175" fill="#B9B9B9" fill-opacity="0.5"/>
<circle cx="507.151" cy="210.3" r="10.35" fill="#D9D9D9"/>
<rect x="284.625" y="265.5" width="120.75" height="22.425" rx="5.175" fill="#B9B9B9"/>
<rect x="239.775" y="308.625" width="210.45" height="10.35" rx="3.45" fill="#B9B9B9" fill-opacity="0.4"/>
<rect x="281.176" y="346.575" width="50.025" height="17.25" rx="3.45" fill="#115EF5"/>
<rect x="358.801" y="346.575" width="50.025" height="17.25" rx="3.45" fill="#D9D9D9"/>
<rect x="130" y="154" width="430" height="292" rx="11.45" stroke="white" stroke-opacity="0.3" stroke-width="16"/>
<path d="M63.424 62.319C61.394 62.319 59.886 61.7487 58.9 60.608C57.9333 59.448 57.45 57.7177 57.45 55.417V48.341C57.45 46.1563 57.9527 44.5033 58.958 43.382C59.9827 42.2413 61.4713 41.671 63.424 41.671C65.454 41.671 66.9523 42.2317 67.919 43.353C68.905 44.4743 69.398 46.137 69.398 48.341V55.417C69.398 57.6983 68.905 59.419 67.919 60.579C66.9523 61.739 65.454 62.319 63.424 62.319ZM63.424 59.013C64.2747 59.013 64.845 58.723 65.135 58.143C65.4443 57.5437 65.599 56.5287 65.599 55.098V48.892C65.599 47.4613 65.4443 46.456 65.135 45.876C64.845 45.296 64.2747 45.006 63.424 45.006C62.5733 45.006 62.003 45.296 61.713 45.876C61.423 46.456 61.278 47.4613 61.278 48.892V55.098C61.278 56.5287 61.423 57.5437 61.713 58.143C62.0223 58.723 62.5927 59.013 63.424 59.013ZM75.2478 46.195L71.8838 48.631V44.513L75.2478 41.99H79.0468V62H75.2478V46.195Z" fill="white" fill-opacity="0.8"/>
<defs>
<linearGradient id="paint0_linear_776_101523" x1="2.57045e-06" y1="300" x2="690" y2="300" gradientUnits="userSpaceOnUse">
<stop stop-color="#115EF5"/>
<stop offset="1" stop-color="#538BF9"/>
</linearGradient>
</defs>
</svg>
