<svg width="690" height="600" viewBox="0 0 690 600" fill="none" xmlns="http://www.w3.org/2000/svg">
<rect width="690" height="600" rx="16" fill="url(#paint0_linear_776_101557)"/>
<path d="M205.996 185.709L296.411 263.508" stroke="white" stroke-opacity="0.15" stroke-width="3.1619"/>
<path d="M212.301 166.785L397.335 215.146" stroke="white" stroke-opacity="0.15" stroke-width="3.1619"/>
<path d="M168.146 368.641L294.306 313.971" stroke="white" stroke-opacity="0.15" stroke-width="3.1619"/>
<path d="M382.617 389.667L496.161 339.203" stroke="white" stroke-opacity="0.15" stroke-width="3.1619"/>
<path d="M361.59 265.61L407.849 240.378" stroke="white" stroke-opacity="0.15" stroke-width="3.1619"/>
<path d="M370.002 299.253L489.854 324.485" stroke="white" stroke-opacity="0.15" stroke-width="3.1619"/>
<path d="M447.801 246.686L498.265 305.561" stroke="white" stroke-opacity="0.15" stroke-width="3.1619"/>
<path d="M168.146 389.667L315.333 398.078" stroke="white" stroke-opacity="0.15" stroke-width="3.1619"/>
<path d="M336.359 330.793L342.667 366.538" stroke="white" stroke-opacity="0.15" stroke-width="3.1619"/>
<path d="M179.711 192.017L150.273 353.922" stroke="white" stroke-opacity="0.15" stroke-width="3.1619"/>
<circle cx="329.003" cy="288.739" r="42.0533" fill="white"/>
<circle cx="329.003" cy="288.739" r="50.0533" stroke="white" stroke-opacity="0.3" stroke-width="16"/>
<circle cx="432.033" cy="221.454" r="33.6427" fill="white" fill-opacity="0.08"/>
<circle cx="432.033" cy="221.454" r="32.0617" stroke="white" stroke-opacity="0.8" stroke-width="3.1619"/>
<circle cx="514.037" cy="324.485" r="25.232" fill="white" fill-opacity="0.08"/>
<circle cx="514.037" cy="324.485" r="23.651" stroke="white" stroke-opacity="0.8" stroke-width="3.1619"/>
<circle cx="350.027" cy="400.181" r="33.6427" fill="white" fill-opacity="0.08"/>
<circle cx="350.027" cy="400.181" r="32.0617" stroke="white" stroke-opacity="0.8" stroke-width="3.1619"/>
<circle cx="143.966" cy="379.154" r="25.232" fill="white" fill-opacity="0.08"/>
<circle cx="143.966" cy="379.154" r="23.651" stroke="white" stroke-opacity="0.8" stroke-width="3.1619"/>
<circle cx="188.123" cy="166.785" r="25.232" fill="white" fill-opacity="0.08"/>
<circle cx="188.123" cy="166.785" r="23.651" stroke="white" stroke-opacity="0.8" stroke-width="3.1619"/>
<circle cx="328.5" cy="287.5" r="18.5" fill="#115EF5"/>
<path d="M63.424 62.319C61.394 62.319 59.886 61.7487 58.9 60.608C57.9333 59.448 57.45 57.7177 57.45 55.417V48.341C57.45 46.1563 57.9527 44.5033 58.958 43.382C59.9827 42.2413 61.4713 41.671 63.424 41.671C65.454 41.671 66.9523 42.2317 67.919 43.353C68.905 44.4743 69.398 46.137 69.398 48.341V55.417C69.398 57.6983 68.905 59.419 67.919 60.579C66.9523 61.739 65.454 62.319 63.424 62.319ZM63.424 59.013C64.2747 59.013 64.845 58.723 65.135 58.143C65.4443 57.5437 65.599 56.5287 65.599 55.098V48.892C65.599 47.4613 65.4443 46.456 65.135 45.876C64.845 45.296 64.2747 45.006 63.424 45.006C62.5733 45.006 62.003 45.296 61.713 45.876C61.423 46.456 61.278 47.4613 61.278 48.892V55.098C61.278 56.5287 61.423 57.5437 61.713 58.143C62.0223 58.723 62.5927 59.013 63.424 59.013ZM78.0608 62.319C76.1855 62.319 74.7258 61.8743 73.6818 60.985C72.6572 60.0763 72.1448 58.8003 72.1448 57.157V56.548H75.6828V56.983C75.6828 57.679 75.8762 58.2107 76.2628 58.578C76.6688 58.926 77.2488 59.1 78.0028 59.1C78.7182 59.1 79.2788 58.868 79.6848 58.404C80.1102 57.94 80.3228 57.3117 80.3228 56.519V55.997C80.3228 55.127 80.1005 54.46 79.6558 53.996C79.2112 53.532 78.5635 53.3 77.7128 53.3H76.6978V50.081H77.6838C78.4185 50.081 78.9888 49.8683 79.3948 49.443C79.8008 49.0177 80.0038 48.428 80.0038 47.674V47.239C80.0038 46.5043 79.8105 45.934 79.4238 45.528C79.0565 45.1027 78.5442 44.89 77.8868 44.89C77.2102 44.89 76.6882 45.0833 76.3208 45.47C75.9535 45.8373 75.7698 46.3497 75.7698 47.007V47.5H72.2898V47.007C72.2898 45.325 72.7925 44.02 73.7978 43.092C74.8225 42.1447 76.2338 41.671 78.0318 41.671C79.7912 41.671 81.1735 42.1543 82.1788 43.121C83.1842 44.0683 83.6868 45.3443 83.6868 46.949V47.384C83.6868 48.254 83.4838 49.037 83.0778 49.733C82.6718 50.4097 82.0918 50.951 81.3378 51.357C82.2078 51.7243 82.8652 52.3043 83.3098 53.097C83.7738 53.8897 84.0058 54.8467 84.0058 55.968V56.519C84.0058 57.6983 83.7545 58.723 83.2518 59.593C82.7492 60.463 82.0435 61.1397 81.1348 61.623C80.2262 62.087 79.2015 62.319 78.0608 62.319Z" fill="white" fill-opacity="0.8"/>
<defs>
<linearGradient id="paint0_linear_776_101557" x1="2.57045e-06" y1="300" x2="690" y2="300" gradientUnits="userSpaceOnUse">
<stop stop-color="#115EF5"/>
<stop offset="1" stop-color="#538BF9"/>
</linearGradient>
</defs>
</svg>
