<svg width="690" height="600" viewBox="0 0 690 600" fill="none" xmlns="http://www.w3.org/2000/svg">
<rect width="690" height="600" rx="16" fill="url(#paint0_linear_776_101546)"/>
<rect x="138" y="155" width="415" height="290.5" rx="20.75" fill="white"/>
<path d="M151.834 186.125C151.834 176.575 159.576 168.833 169.126 168.833H259.042V429.937H169.126C159.576 429.937 151.834 422.196 151.834 412.646V186.125Z" fill="#EDEDED"/>
<path d="M265.959 238H539.167V412.646C539.167 422.196 531.426 429.938 521.876 429.938H265.959V238Z" fill="#EDEDED"/>
<path d="M265.959 168.833H521.876C531.426 168.833 539.167 176.575 539.167 186.125V231.083H265.959V168.833Z" fill="#EDEDED"/>
<rect x="279.791" y="179.208" width="48.4167" height="6.91667" rx="2" fill="#115EF5"/>
<rect x="279.791" y="193.042" width="96.8333" height="3.45833" rx="1.72917" fill="#B9B9B9"/>
<circle cx="478.646" cy="187.854" r="8.64583" fill="#115EF5"/>
<rect x="130" y="147" width="431" height="306.5" rx="28.75" stroke="white" stroke-opacity="0.3" stroke-width="16"/>
<path d="M48.424 62.319C46.394 62.319 44.886 61.7487 43.9 60.608C42.9333 59.448 42.45 57.7177 42.45 55.417V48.341C42.45 46.1563 42.9527 44.5033 43.958 43.382C44.9827 42.2413 46.4713 41.671 48.424 41.671C50.454 41.671 51.9523 42.2317 52.919 43.353C53.905 44.4743 54.398 46.137 54.398 48.341V55.417C54.398 57.6983 53.905 59.419 52.919 60.579C51.9523 61.739 50.454 62.319 48.424 62.319ZM48.424 59.013C49.2747 59.013 49.845 58.723 50.135 58.143C50.4443 57.5437 50.599 56.5287 50.599 55.098V48.892C50.599 47.4613 50.4443 46.456 50.135 45.876C49.845 45.296 49.2747 45.006 48.424 45.006C47.5733 45.006 47.003 45.296 46.713 45.876C46.423 46.456 46.278 47.4613 46.278 48.892V55.098C46.278 56.5287 46.423 57.5437 46.713 58.143C47.0223 58.723 47.5927 59.013 48.424 59.013ZM57.2318 58.984L63.8728 50.371C64.6075 49.385 64.9748 48.4473 64.9748 47.558V47.152C64.9748 46.456 64.7815 45.905 64.3948 45.499C64.0275 45.093 63.5248 44.89 62.8868 44.89C62.2488 44.89 61.7462 45.1027 61.3788 45.528C61.0115 45.9533 60.8278 46.543 60.8278 47.297V47.761H57.1448V47.065C57.1448 46.021 57.3768 45.093 57.8408 44.281C58.3242 43.469 59.0105 42.831 59.8998 42.367C60.7892 41.903 61.8332 41.671 63.0318 41.671C64.1918 41.671 65.2068 41.9127 66.0768 42.396C66.9662 42.8793 67.6428 43.527 68.1068 44.339C68.5902 45.151 68.8318 46.05 68.8318 47.036V47.529C68.8318 48.399 68.6772 49.2013 68.3678 49.936C68.0585 50.6707 67.6042 51.4247 67.0048 52.198L62.0168 58.665H68.8318V62H57.2318V58.984Z" fill="white" fill-opacity="0.8"/>
<defs>
<linearGradient id="paint0_linear_776_101546" x1="2.57045e-06" y1="300" x2="690" y2="300" gradientUnits="userSpaceOnUse">
<stop stop-color="#115EF5"/>
<stop offset="1" stop-color="#538BF9"/>
</linearGradient>
</defs>
</svg>
