<svg width="32" height="32" viewBox="0 0 32 32" fill="none" xmlns="http://www.w3.org/2000/svg">
<path fill-rule="evenodd" clip-rule="evenodd" d="M4.77772 10.3259C5.43552 10.7654 6.20888 11 7 11C8.06087 11 9.07828 10.5786 9.82843 9.82843C10.5786 9.07828 11 8.06087 11 7C11 6.20888 10.7654 5.43552 10.3259 4.77772C9.88635 4.11992 9.26164 3.60723 8.53074 3.30448C7.79983 3.00173 6.99556 2.92252 6.21964 3.07686C5.44372 3.2312 4.73098 3.61216 4.17157 4.17157C3.61216 4.73098 3.2312 5.44372 3.07686 6.21964C2.92252 6.99556 3.00173 7.79983 3.30448 8.53074C3.60723 9.26164 4.11992 9.88635 4.77772 10.3259ZM5.88886 5.33706C6.21776 5.1173 6.60444 5 7 5C7.53044 5 8.03914 5.21072 8.41422 5.58579C8.78929 5.96086 9 6.46957 9 7C9 7.39556 8.8827 7.78224 8.66294 8.11114C8.44318 8.44004 8.13082 8.69639 7.76537 8.84776C7.39992 8.99914 6.99778 9.03874 6.60982 8.96157C6.22186 8.8844 5.86549 8.69392 5.58579 8.41422C5.30608 8.13451 5.1156 7.77814 5.03843 7.39018C4.96126 7.00222 5.00087 6.60009 5.15224 6.23463C5.30362 5.86918 5.55996 5.55683 5.88886 5.33706ZM15 6H28V8H15V6ZM15 24H28V26H15V24ZM17 15H4V17H17V15ZM7 29C6.20888 29 5.43552 28.7654 4.77772 28.3259C4.11992 27.8864 3.60723 27.2616 3.30448 26.5307C3.00173 25.7998 2.92252 24.9956 3.07686 24.2196C3.2312 23.4437 3.61216 22.731 4.17157 22.1716C4.73098 21.6122 5.44372 21.2312 6.21964 21.0769C6.99556 20.9225 7.79983 21.0017 8.53074 21.3045C9.26164 21.6072 9.88635 22.1199 10.3259 22.7777C10.7654 23.4355 11 24.2089 11 25C11 26.0609 10.5786 27.0783 9.82843 27.8284C9.07828 28.5786 8.06087 29 7 29ZM7 23C6.60444 23 6.21776 23.1173 5.88886 23.3371C5.55996 23.5568 5.30362 23.8692 5.15224 24.2346C5.00087 24.6001 4.96126 25.0022 5.03843 25.3902C5.1156 25.7781 5.30608 26.1345 5.58579 26.4142C5.86549 26.6939 6.22186 26.8844 6.60982 26.9616C6.99778 27.0387 7.39992 26.9991 7.76537 26.8478C8.13082 26.6964 8.44318 26.44 8.66294 26.1111C8.8827 25.7822 9 25.3956 9 25C9 24.4696 8.78929 23.9609 8.41422 23.5858C8.03914 23.2107 7.53044 23 7 23ZM22.7777 19.3259C23.4355 19.7654 24.2089 20 25 20C26.0609 20 27.0783 19.5786 27.8284 18.8284C28.5786 18.0783 29 17.0609 29 16C29 15.2089 28.7654 14.4355 28.3259 13.7777C27.8864 13.1199 27.2616 12.6072 26.5307 12.3045C25.7998 12.0017 24.9956 11.9225 24.2196 12.0769C23.4437 12.2312 22.731 12.6122 22.1716 13.1716C21.6122 13.731 21.2312 14.4437 21.0769 15.2196C20.9225 15.9956 21.0017 16.7998 21.3045 17.5307C21.6072 18.2616 22.1199 18.8864 22.7777 19.3259ZM23.8889 14.3371C24.2178 14.1173 24.6044 14 25 14C25.5304 14 26.0391 14.2107 26.4142 14.5858C26.7893 14.9609 27 15.4696 27 16C27 16.3956 26.8827 16.7822 26.6629 17.1111C26.4432 17.44 26.1308 17.6964 25.7654 17.8478C25.3999 17.9991 24.9978 18.0387 24.6098 17.9616C24.2219 17.8844 23.8655 17.6939 23.5858 17.4142C23.3061 17.1345 23.1156 16.7781 23.0384 16.3902C22.9613 16.0022 23.0009 15.6001 23.1522 15.2346C23.3036 14.8692 23.56 14.5568 23.8889 14.3371Z" fill="#111"/>
</svg>
