<svg width="32" height="32" viewBox="0 0 32 32" fill="none" xmlns="http://www.w3.org/2000/svg">
<path fill-rule="evenodd" clip-rule="evenodd" d="M27.7071 10.7067C27.5196 10.8942 27.2652 10.9996 27 10.9996H26V23.9996H28V25.9996H4V23.9996H6V10.9996H5C4.73478 10.9996 4.48043 10.8942 4.29289 10.7067C4.10536 10.5191 4 10.2648 4 9.99957V6.99957C4.00009 6.79406 4.06349 6.59356 4.18159 6.42537C4.29968 6.25717 4.46673 6.12945 4.66 6.05957L15.66 2.05957C15.8797 1.98014 16.1203 1.98014 16.34 2.05957L27.34 6.05957C27.5333 6.12945 27.7003 6.25717 27.8184 6.42537C27.9365 6.59356 27.9999 6.79406 28 6.99957V9.99957C28 10.2648 27.8946 10.5191 27.7071 10.7067ZM16 4.05957L6 7.69957V8.99957H26V7.69957L16 4.05957ZM14 10.9996V23.9996H18V10.9996H14ZM12 10.9996H8V23.9996H12V10.9996ZM20 23.9996H24V10.9996H20V23.9996ZM2 29.9996V27.9996H30V29.9996H2Z" fill="#111111"/>
</svg>
