<svg width="32" height="32" viewBox="0 0 32 32" fill="none" xmlns="http://www.w3.org/2000/svg">
<path fill-rule="evenodd" clip-rule="evenodd" d="M28 4H4C3.46973 4.00053 2.96133 4.21141 2.58637 4.58637C2.21141 4.96133 2.00053 5.46973 2 6V26C2.00061 26.5302 2.21152 27.0386 2.58646 27.4135C2.9614 27.7885 3.46975 27.9994 4 28H14V26H4V12H28V15H30V6C29.9994 5.46975 29.7885 4.9614 29.4135 4.58646C29.0386 4.21152 28.5302 4.00061 28 4ZM28 10H4V6H28V10ZM30 22H27.8989C27.77 21.3741 27.5214 20.7789 27.167 20.2471L28.657 18.7571L27.243 17.3431L25.753 18.8331C25.2212 18.4786 24.626 18.2301 24 18.1011V16H22V18.1011C21.3741 18.23 20.7789 18.4786 20.2471 18.833L18.7571 17.343L17.3431 18.757L18.8331 20.247C18.4786 20.7788 18.2301 21.374 18.1011 22H16V24H18.1011C18.23 24.6259 18.4786 25.2211 18.833 25.7529L17.343 27.2429L18.757 28.6569L20.247 27.1669C20.7788 27.5214 21.374 27.7699 22 27.8989V30H24V27.8989C24.6259 27.77 25.2211 27.5214 25.7529 27.167L27.2429 28.657L28.6569 27.243L27.1669 25.753C27.5214 25.2212 27.7699 24.626 27.8989 24H30V22ZM23 26C22.4067 26 21.8266 25.8241 21.3333 25.4944C20.8399 25.1648 20.4554 24.6962 20.2284 24.1481C20.0013 23.5999 19.9419 22.9967 20.0576 22.4147C20.1734 21.8328 20.4591 21.2982 20.8787 20.8787C21.2982 20.4591 21.8328 20.1734 22.4147 20.0576C22.9967 19.9419 23.5999 20.0013 24.1481 20.2284C24.6962 20.4554 25.1648 20.8399 25.4944 21.3333C25.8241 21.8266 26 22.4067 26 23C25.9991 23.7954 25.6828 24.5579 25.1204 25.1204C24.5579 25.6828 23.7954 25.9991 23 26ZM21 8C21 8.55228 20.5523 9 20 9C19.4477 9 19 8.55228 19 8C19 7.44772 19.4477 7 20 7C20.5523 7 21 7.44772 21 8ZM23 9C23.5523 9 24 8.55228 24 8C24 7.44772 23.5523 7 23 7C22.4477 7 22 7.44772 22 8C22 8.55228 22.4477 9 23 9ZM27 8C27 8.55228 26.5523 9 26 9C25.4477 9 25 8.55228 25 8C25 7.44772 25.4477 7 26 7C26.5523 7 27 7.44772 27 8Z" fill="#111111"/>
</svg>
