<svg width="32" height="32" viewBox="0 0 32 32" fill="none" xmlns="http://www.w3.org/2000/svg">
<path fill-rule="evenodd" clip-rule="evenodd" d="M27.8989 8H30V10H27.8989C27.7699 10.626 27.5214 11.2212 27.1669 11.753L28.6569 13.243L27.2429 14.657L25.7529 13.167C25.2211 13.5214 24.6259 13.77 24 13.8989V16H22V13.8989C21.374 13.7699 20.7788 13.5214 20.247 13.1669L18.757 14.6569L17.343 13.2429L18.833 11.7529C18.4786 11.2211 18.23 10.6259 18.1011 10H16V8H18.1011C18.2301 7.37402 18.4786 6.77881 18.8331 6.247L17.3431 4.757L18.7571 3.343L20.2471 4.833C20.7789 4.47855 21.3741 4.23004 22 4.1011V2H24V4.1011C24.626 4.23006 25.2212 4.47861 25.753 4.8331L27.243 3.3431L28.657 4.7571L27.167 6.2471C27.5214 6.77888 27.77 7.37406 27.8989 8ZM21.3333 11.4944C21.8266 11.8241 22.4067 12 23 12C23.7954 11.9991 24.5579 11.6828 25.1204 11.1204C25.6828 10.5579 25.9991 9.79538 26 9C26 8.40666 25.8241 7.82664 25.4944 7.33329C25.1648 6.83994 24.6962 6.45542 24.1481 6.22836C23.5999 6.0013 22.9967 5.94189 22.4147 6.05764C21.8328 6.1734 21.2982 6.45912 20.8787 6.87868C20.4591 7.29824 20.1734 7.83279 20.0576 8.41473C19.9419 8.99667 20.0013 9.59987 20.2284 10.1481C20.4554 10.6962 20.8399 11.1648 21.3333 11.4944ZM28 22V17H30V22C30 22.5304 29.7893 23.0391 29.4142 23.4142C29.0391 23.7893 28.5304 24 28 24H20V28H24V30H8V28H12V24H4C3.46957 24 2.96086 23.7893 2.58579 23.4142C2.21071 23.0391 2 22.5304 2 22V6C2 5.46957 2.21071 4.96086 2.58579 4.58579C2.96086 4.21071 3.46957 4 4 4H14V6H4V22H28ZM14 24V28H18V24H14Z" fill="#111111"/>
</svg>
