<svg width="32" height="32" viewBox="0 0 32 32" fill="none" xmlns="http://www.w3.org/2000/svg">
<path fill-rule="evenodd" clip-rule="evenodd" d="M30 11V13H26V19H30V21H26V24C26 24.5304 25.7893 25.0391 25.4142 25.4142C25.0391 25.7893 24.5304 26 24 26H21V30H19V26H13V30H11V26H8C7.46957 26 6.96086 25.7893 6.58579 25.4142C6.21071 25.0391 6 24.5304 6 24V21H2V19H6V13H2V11H6V8C6 7.46957 6.21071 6.96086 6.58579 6.58579C6.96086 6.21071 7.46957 6 8 6H11V2H13V6H19V2H21V6H24C24.5304 6 25.0391 6.21071 25.4142 6.58579C25.7893 6.96086 26 7.46957 26 8V11H30ZM8 24H24V8H8V24ZM11 21V11H21V21H11ZM13 19H19V13H13V19Z" fill="#111111"/>
</svg>
