<svg width="32" height="32" viewBox="0 0 32 32" fill="none" xmlns="http://www.w3.org/2000/svg">
<path fill-rule="evenodd" clip-rule="evenodd" d="M30 15H28V7H13V5H28C28.5302 5.00061 29.0386 5.21152 29.4135 5.58646C29.7885 5.9614 29.9994 6.46975 30 7V15ZM25 20H23V12H8V10H23C23.5302 10.0006 24.0386 10.2115 24.4135 10.5865C24.7885 10.9614 24.9994 11.4698 25 12V20ZM4 27H18C18.5302 26.9994 19.0386 26.7885 19.4135 26.4135C19.7885 26.0386 19.9994 25.5302 20 25V17C19.9994 16.4698 19.7885 15.9614 19.4135 15.5865C19.0386 15.2115 18.5302 15.0006 18 15H4C3.46975 15.0006 2.9614 15.2115 2.58646 15.5865C2.21152 15.9614 2.00061 16.4698 2 17V25C2.00061 25.5302 2.21152 26.0386 2.58646 26.4135C2.9614 26.7885 3.46975 26.9994 4 27ZM4 25V17H18L18.0012 25H4Z" fill="#111111"/>
</svg>
