<svg width="88" height="32" viewBox="0 0 88 32" fill="none" xmlns="http://www.w3.org/2000/svg">
<path fill-rule="evenodd" clip-rule="evenodd" d="M71.0893 22.7403C71.0893 23.1025 70.9401 23.4499 70.6745 23.7059C70.4089 23.9619 70.0488 24.1056 69.6734 24.1052H65.2266C62.8277 24.1052 60.9724 23.5015 59.6608 22.2943C58.2214 20.9769 57.5013 18.9801 57.5003 16.304C57.5003 13.1762 58.1961 10.955 59.5876 9.64045C60.8037 8.47928 62.7155 7.8987 65.3231 7.8987H69.666C70.0428 7.89682 70.4049 8.03994 70.672 8.29638C70.9391 8.55281 71.0893 8.90141 71.0893 9.265C71.0893 9.62724 70.9401 9.97462 70.6745 10.2306C70.4089 10.4866 70.0488 10.6303 69.6734 10.6299H65.3714C64.1037 10.6299 63.1397 10.9522 62.4795 11.5967C62.1577 11.9171 61.9143 12.3029 61.7672 12.7259C61.615 13.1441 61.6823 13.6074 61.9476 13.9691C62.2129 14.3309 62.6434 14.5461 63.1027 14.5467H69.666C70.0414 14.5463 70.4016 14.69 70.6672 14.946C70.9328 15.202 71.082 15.5494 71.082 15.9116C71.082 16.6662 70.4481 17.2779 69.666 17.2779H62.9856C62.5499 17.2767 62.1379 17.4696 61.8692 17.8006C61.6005 18.1316 61.5051 18.5637 61.6106 18.9717C61.751 19.5626 62.0654 20.1018 62.5161 20.5243C63.1392 21.0889 64.091 21.3712 65.3714 21.3712H69.666C70.0422 21.3689 70.4038 21.5113 70.6709 21.7669C70.938 22.0225 71.0885 22.3703 71.0893 22.7332V22.7403ZM54.0711 17.557C54.0711 20.1118 53.5191 21.8611 52.4152 22.8049C51.4079 23.6715 49.6482 24.1048 47.1361 24.1048H43.9693C43.2274 24.1048 42.6258 23.5249 42.625 22.8091C42.625 22.0927 43.2269 21.512 43.9693 21.512H46.7046C48.2083 21.512 49.224 21.1676 49.7516 20.4788C50.2791 19.79 50.5429 18.57 50.5429 16.8188V9.19691C50.5437 8.48107 51.1453 7.90118 51.8872 7.90118H52.7268C53.0832 7.90081 53.4251 8.03716 53.6773 8.2802C53.9294 8.52323 54.0711 8.85302 54.0711 9.19691V17.557ZM84.0632 10.7002H86.5835C87.3652 10.6994 87.9986 10.0882 87.9994 9.33389C87.9994 8.5793 87.3655 7.96759 86.5835 7.96759H75.1623C74.3803 7.96759 73.7463 8.5793 73.7463 9.33389C73.7463 9.69626 73.8955 10.0438 74.1611 10.3C74.4266 10.5562 74.7867 10.7002 75.1623 10.7002H77.63C78.0054 10.6998 78.3655 10.8435 78.6311 11.0995C78.8967 11.3555 79.0459 11.7028 79.0459 12.0651V22.74C79.0459 23.1022 79.1951 23.4496 79.4607 23.7056C79.7263 23.9616 80.0865 24.1053 80.4619 24.1049H81.2298C82.0112 24.1049 82.6449 23.494 82.6457 22.74V12.0651C82.6457 11.7026 82.7952 11.355 83.0611 11.099C83.327 10.8429 83.6875 10.6994 84.0632 10.7002Z" fill="url(#paint0_linear_560_103217)"/>
<path d="M33.1446 16.8289C33.1593 16.5551 33.1666 16.2841 33.1666 16.0018C33.1666 7.16425 25.742 0 16.5833 0C7.42459 0 0 7.16425 0 16.0018C0 16.2785 0.00926414 16.5528 0.0277924 16.8247C0.055613 17.3633 0.40558 17.837 0.924129 18.0381C1.44268 18.2391 2.03506 18.1308 2.44134 17.7605C6.05729 14.4063 10.8289 12.4577 15.8417 12.2882L16.1342 12.2798H17.0367L17.3293 12.2882C22.3426 12.459 27.1143 14.4091 30.7296 17.7647C31.1358 18.1359 31.7288 18.2449 32.248 18.0437C32.7671 17.8425 33.1173 17.3681 33.1446 16.8289Z" fill="url(#paint1_linear_560_103217)"/>
<path d="M26.8431 25.9031H26.8767C27.9621 25.8989 28.4974 27.1805 27.6929 27.8735C21.3844 33.3754 11.7836 33.3754 5.47509 27.8735C4.67057 27.1678 5.20594 25.8974 6.28984 25.8974H6.32788C10.2467 25.8957 13.8223 23.7406 15.5432 20.3433L15.5959 20.2403C15.7946 19.8941 16.1724 19.6792 16.5825 19.6792C16.9927 19.6792 17.3705 19.8941 17.5692 20.2403L17.6277 20.356C19.3506 23.7506 22.9259 25.9026 26.8431 25.9031Z" fill="url(#paint2_linear_560_103217)"/>
<defs>
<linearGradient id="paint0_linear_560_103217" x1="42.625" y1="16.0019" x2="87.9994" y2="16.0019" gradientUnits="userSpaceOnUse">
<stop stop-color="#115EF5"/>
<stop offset="1" stop-color="#538BF9"/>
</linearGradient>
<linearGradient id="paint1_linear_560_103217" x1="1.23555e-07" y1="16" x2="33.1666" y2="16" gradientUnits="userSpaceOnUse">
<stop stop-color="#115EF5"/>
<stop offset="1" stop-color="#538BF9"/>
</linearGradient>
<linearGradient id="paint2_linear_560_103217" x1="1.23555e-07" y1="16" x2="33.1666" y2="16" gradientUnits="userSpaceOnUse">
<stop stop-color="#115EF5"/>
<stop offset="1" stop-color="#538BF9"/>
</linearGradient>
</defs>
</svg>
