<svg width="618" height="538" viewBox="0 0 618 538" fill="none" xmlns="http://www.w3.org/2000/svg">
<rect x="102" y="124" width="415" height="290.5" rx="20.75" fill="black"/>
<path d="M115.833 155.125C115.833 145.575 123.575 137.833 133.125 137.833H223.042V398.937H133.125C123.575 398.937 115.833 391.196 115.833 381.646V155.125Z" fill="#222222"/>
<path d="M229.958 207H503.167V381.646C503.167 391.196 495.425 398.938 485.875 398.938H229.958V207Z" fill="#222222"/>
<path d="M229.958 137.833H485.875C495.425 137.833 503.167 145.575 503.167 155.125V200.083H229.958V137.833Z" fill="#222222"/>
<rect x="243.792" y="148.208" width="48.4167" height="6.91667" rx="2" fill="#115EF5"/>
<rect x="243.792" y="162.042" width="96.8333" height="3.45833" rx="1.72917" fill="white" fill-opacity="0.2"/>
<circle cx="442.646" cy="156.854" r="8.64583" fill="#115EF5"/>
<rect x="94" y="116" width="431" height="306.5" rx="28.75" stroke="black" stroke-opacity="0.1" stroke-width="16"/>
<path d="M12.424 31.319C10.394 31.319 8.886 30.7487 7.9 29.608C6.93333 28.448 6.45 26.7177 6.45 24.417V17.341C6.45 15.1563 6.95267 13.5033 7.958 12.382C8.98267 11.2413 10.4713 10.671 12.424 10.671C14.454 10.671 15.9523 11.2317 16.919 12.353C17.905 13.4743 18.398 15.137 18.398 17.341V24.417C18.398 26.6983 17.905 28.419 16.919 29.579C15.9523 30.739 14.454 31.319 12.424 31.319ZM12.424 28.013C13.2747 28.013 13.845 27.723 14.135 27.143C14.4443 26.5437 14.599 25.5287 14.599 24.098V17.892C14.599 16.4613 14.4443 15.456 14.135 14.876C13.845 14.296 13.2747 14.006 12.424 14.006C11.5733 14.006 11.003 14.296 10.713 14.876C10.423 15.456 10.278 16.4613 10.278 17.892V24.098C10.278 25.5287 10.423 26.5437 10.713 27.143C11.0223 27.723 11.5927 28.013 12.424 28.013ZM21.2318 27.984L27.8728 19.371C28.6075 18.385 28.9748 17.4473 28.9748 16.558V16.152C28.9748 15.456 28.7815 14.905 28.3948 14.499C28.0275 14.093 27.5248 13.89 26.8868 13.89C26.2488 13.89 25.7462 14.1027 25.3788 14.528C25.0115 14.9533 24.8278 15.543 24.8278 16.297V16.761H21.1448V16.065C21.1448 15.021 21.3768 14.093 21.8408 13.281C22.3242 12.469 23.0105 11.831 23.8998 11.367C24.7892 10.903 25.8332 10.671 27.0318 10.671C28.1918 10.671 29.2068 10.9127 30.0768 11.396C30.9662 11.8793 31.6428 12.527 32.1068 13.339C32.5902 14.151 32.8318 15.05 32.8318 16.036V16.529C32.8318 17.399 32.6772 18.2013 32.3678 18.936C32.0585 19.6707 31.6042 20.4247 31.0048 21.198L26.0168 27.665H32.8318V31H21.2318V27.984Z" fill="white" fill-opacity="0.8"/>
</svg>
