<svg width="70" height="98" viewBox="0 0 70 98" fill="none" xmlns="http://www.w3.org/2000/svg">
<path d="M68.3254 3.46428C69.1341 3.28457 69.644 2.4833 69.4643 1.6746C69.2846 0.865904 68.4833 0.356008 67.6746 0.535719L68.3254 3.46428ZM36.4227 26.3706L34.9274 26.4897L34.9296 26.5172L34.9328 26.5447L36.4227 26.3706ZM46.5281 42.2442L45.8182 43.5656L46.5281 42.2442ZM57.4644 28.135L56.8327 29.4955L57.4644 28.135ZM31.0237 34.6105L30.2498 33.3255H30.2498L31.0237 34.6105ZM13.2014 62.6153L11.7501 62.2362L13.2014 62.6153ZM11.4405 97.1847C12.0948 97.6928 13.0372 97.5743 13.5453 96.9201L21.8259 86.2579C22.334 85.6036 22.2155 84.6613 21.5612 84.1531C20.907 83.645 19.9646 83.7635 19.4565 84.4178L12.096 93.8952L2.61849 86.5347C1.96421 86.0266 1.02188 86.1451 0.513741 86.7994C0.00560379 87.4536 0.12408 88.396 0.778363 88.9041L11.4405 97.1847ZM67.6746 0.535719C63.2364 1.52199 54.7698 3.18416 47.6114 6.90271C40.4323 10.632 34.146 16.6737 34.9274 26.4897L37.918 26.2516C37.2767 18.1969 42.279 13.0533 48.9943 9.56494C55.7302 6.06584 63.7636 4.47801 68.3254 3.46428L67.6746 0.535719ZM34.9328 26.5447C35.1162 28.1137 35.5405 29.7728 36.1515 31.4159L38.9634 30.3703C38.4209 28.9115 38.0635 27.4877 37.9126 26.1965L34.9328 26.5447ZM36.1515 31.4159C37.9285 36.1949 41.4333 41.2101 45.8182 43.5656L47.2379 40.9227C43.7109 39.0281 40.5864 34.7352 38.9634 30.3703L36.1515 31.4159ZM45.8182 43.5656C52.1382 46.9606 59.3663 45.0127 62.9975 41.1229C64.8424 39.1467 65.8847 36.5151 65.1479 33.757C64.42 31.0326 62.0691 28.6192 58.0961 26.7745L56.8327 29.4955C60.3775 31.1413 61.8406 33.0007 62.2495 34.5313C62.6494 36.028 62.1511 37.6333 60.8046 39.0757C58.0531 42.0232 52.2951 43.6394 47.2379 40.9227L45.8182 43.5656ZM58.0961 26.7745C51.0644 23.5097 43.204 26.2965 36.8704 29.5597L38.2444 32.2265C44.5339 28.9861 51.2024 26.8814 56.8327 29.4955L58.0961 26.7745ZM36.8704 29.5597C34.4807 30.7908 32.233 32.1309 30.2498 33.3255L31.7977 35.8954C33.7797 34.7015 35.952 33.4076 38.2444 32.2265L36.8704 29.5597ZM30.2498 33.3255C18.9236 40.1477 14.7894 50.6005 11.7501 62.2362L14.6527 62.9944C17.6444 51.541 21.5203 42.0858 31.7977 35.8954L30.2498 33.3255ZM11.7501 62.2362C11.3256 63.8613 11.0457 66.5701 10.8568 69.657C10.6653 72.786 10.5609 76.4316 10.5203 80.0055C10.4395 87.1062 10.6087 94.09 10.8723 96.1871L13.8489 95.8129C13.6151 93.9536 13.4389 87.1764 13.5201 80.0396C13.5604 76.4947 13.6638 72.9024 13.8512 69.8403C14.0412 66.7361 14.3115 64.3006 14.6527 62.9944L11.7501 62.2362Z" fill="#115EF5"/>
</svg>
