<svg width="32" height="32" viewBox="0 0 32 32" fill="none" xmlns="http://www.w3.org/2000/svg">
<path fill-rule="evenodd" clip-rule="evenodd" d="M8.64089 15.4217C9.13168 16.4925 9.87821 17.4262 10.8147 18.1406L10.8154 18.1412C11.8899 19.1342 13.0002 20.1604 13.0002 22H11.0002C11.0002 21.0815 10.4719 20.5508 9.46024 19.6162C8.32139 18.7116 7.41378 17.5493 6.81222 16.2252C6.21066 14.901 5.93235 13.4528 6.00024 12C6.00318 9.34874 7.05769 6.8069 8.93242 4.93218C10.8071 3.05745 13.349 2.00294 16.0002 2V4C13.8793 4.00243 11.8458 4.84607 10.3461 6.34584C8.84631 7.8456 8.00268 9.87902 8.00024 12C7.93009 13.1758 8.1501 14.3509 8.64089 15.4217ZM21.0002 24H11.0002V26H21.0002V24ZM19.0002 28H13.0002V30H19.0002V28ZM23.8002 14C23.4315 15.6425 22.505 17.1064 21.1783 18.1426C20.1071 19.1348 19.0002 20.1611 19.0002 22H21.0002C21.0002 21.0806 21.5266 20.55 22.5354 19.6143C24.2886 18.212 25.4646 16.2136 25.8391 14H23.8002ZM28.5902 2L30.0002 3.41L26.4102 7L30.0002 10.59L28.5902 12L25.0002 8.41L21.4102 12L20.0002 10.59L23.5902 7L20.0002 3.41L21.4102 2L25.0002 5.59L28.5902 2Z" fill="#111111"/>
</svg>
