<svg width="32" height="32" viewBox="0 0 32 32" fill="none" xmlns="http://www.w3.org/2000/svg">
<path fill-rule="evenodd" clip-rule="evenodd" d="M17 8L23 2L29 8L27.5859 9.4023L24 5.8154V28C23.9993 28.5302 23.7884 29.0386 23.4135 29.4135C23.0386 29.7884 22.5302 29.9993 22 30H6C5.46977 29.9993 4.96145 29.7884 4.58652 29.4135C4.21159 29.0386 4.00066 28.5302 4 28V12H6V28H22V5.8184L18.4146 9.4023L17 8ZM12 24H16C16.5302 23.9994 17.0386 23.7885 17.4135 23.4135C17.7885 23.0386 17.9994 22.5302 18 22V18C17.9994 17.4698 17.7885 16.9614 17.4135 16.5865C17.0386 16.2115 16.5302 16.0006 16 16H12C11.4698 16.0006 10.9614 16.2115 10.5865 16.5865C10.2115 16.9614 10.0006 17.4698 10 18V22C10.0006 22.5302 10.2115 23.0386 10.5865 23.4135C10.9614 23.7885 11.4698 23.9994 12 24ZM12 22V18H16V22H12Z" fill="#111111"/>
</svg>
