<svg width="32" height="32" viewBox="0 0 32 32" fill="none" xmlns="http://www.w3.org/2000/svg">
<path fill-rule="evenodd" clip-rule="evenodd" d="M26.9189 9.6064L29.9189 16.6064C29.9724 16.7307 30 16.8647 30 17V24C30 24.2652 29.8947 24.5196 29.7071 24.7071C29.5196 24.8946 29.2652 25 29 25H26.8579C26.6399 25.8578 26.1422 26.6184 25.4435 27.1617C24.7448 27.7049 23.885 27.9999 23 27.9999C22.115 27.9999 21.2552 27.7049 20.5565 27.1617C19.8578 26.6184 19.3602 25.8578 19.1421 25H12.8579C12.6145 25.9427 12.0357 26.7642 11.2299 27.3106C10.4241 27.857 9.44672 28.0908 8.48091 27.9681C7.51509 27.8454 6.62717 27.3747 5.98359 26.6442C5.34 25.9137 4.98492 24.9736 4.98492 24C4.98492 23.0264 5.34 22.0863 5.98359 21.3558C6.62717 20.6253 7.51509 20.1546 8.48091 20.0319C9.44672 19.9092 10.4241 20.143 11.2299 20.6894C12.0357 21.2358 12.6145 22.0573 12.8579 23H19.1421C19.2752 22.4902 19.5079 22.0118 19.8268 21.5924C20.1457 21.173 20.5444 20.8208 21 20.5562V8H6.00001V6H22C22.2652 6 22.5196 6.10536 22.7071 6.29289C22.8947 6.48043 23 6.73478 23 7V9H26C26.1957 8.99988 26.3872 9.0573 26.5506 9.16511C26.714 9.27293 26.842 9.42638 26.9189 9.6064ZM7.88887 25.6629C8.21777 25.8827 8.60444 26 9.00001 26C9.53025 25.9994 10.0386 25.7885 10.4135 25.4135C10.7885 25.0386 10.9994 24.5302 11 24C11 23.6044 10.8827 23.2178 10.6629 22.8889C10.4432 22.56 10.1308 22.3036 9.76537 22.1522C9.39992 22.0009 8.99779 21.9613 8.60983 22.0384C8.22187 22.1156 7.8655 22.3061 7.58579 22.5858C7.30609 22.8655 7.11561 23.2219 7.03844 23.6098C6.96127 23.9978 7.00087 24.3999 7.15225 24.7654C7.30362 25.1308 7.55997 25.4432 7.88887 25.6629ZM25.3408 11H23V16H27.4839L25.3408 11ZM21.8889 25.6629C22.2178 25.8827 22.6044 26 23 26C23.5303 25.9994 24.0386 25.7885 24.4135 25.4135C24.7885 25.0386 24.9994 24.5302 25 24C25 23.6044 24.8827 23.2178 24.6629 22.8889C24.4432 22.56 24.1308 22.3036 23.7654 22.1522C23.3999 22.0009 22.9978 21.9613 22.6098 22.0384C22.2219 22.1156 21.8655 22.3061 21.5858 22.5858C21.3061 22.8655 21.1156 23.2219 21.0384 23.6098C20.9613 23.9978 21.0009 24.3999 21.1522 24.7654C21.3036 25.1308 21.56 25.4432 21.8889 25.6629ZM26.8579 23H28V18H23V20C23.8844 20.0026 24.743 20.2985 25.4411 20.8414C26.1393 21.3843 26.6376 22.1435 26.8579 23ZM12 11H2V13H12V11ZM16 16H4V18H16V16Z" fill="#111111"/>
</svg>
