<svg width="32" height="32" viewBox="0 0 32 32" fill="none" xmlns="http://www.w3.org/2000/svg">
<path fill-rule="evenodd" clip-rule="evenodd" d="M19.1696 13.2906L13.4796 5.15061L12.0796 5.52061L14.3396 13.8806L14.8596 15.8106L12.9196 16.3306L10.1196 17.0806L8.8096 17.4306L7.99959 16.3506L5.69959 13.2506L4.25959 13.6406L4.99959 16.3806L5.74959 19.1906L5.99959 20.1206C6.08055 20.4353 6.24209 20.7234 6.46829 20.9566C6.6945 21.1898 6.97756 21.3601 7.28959 21.4506C7.61608 21.5462 7.96311 21.5462 8.28959 21.4506L26.9996 16.4506C27.2467 16.3788 27.4763 16.2568 27.6741 16.0922C27.8719 15.9275 28.0335 15.7239 28.149 15.4939C28.2645 15.2639 28.3312 15.0126 28.3451 14.7557C28.3589 14.4987 28.3196 14.2417 28.2296 14.0006C28.1244 13.724 27.954 13.4769 27.7329 13.2801C27.5118 13.0834 27.2465 12.9429 26.9596 12.8706C26.5929 12.7707 26.2062 12.7707 25.8396 12.8706L21.3196 14.0806L19.9696 14.4406L19.1696 13.2906ZM13.6596 3.00061C13.8239 2.96074 13.9953 2.96074 14.1596 3.00061C14.3818 3.07022 14.5728 3.21523 14.6996 3.41061L20.7696 12.1506L25.2796 10.9406C25.9877 10.7555 26.7315 10.7555 27.4396 10.9406C28.2656 11.1521 28.9977 11.6325 29.5205 12.306C30.0433 12.9796 30.3271 13.808 30.3271 14.6606C30.3271 15.5132 30.0433 16.3416 29.5205 17.0152C28.9977 17.6887 28.2656 18.1691 27.4396 18.3806L8.73959 23.3806C8.0842 23.554 7.39499 23.554 6.73959 23.3806C6.08235 23.205 5.483 22.8593 5.00196 22.3782C4.52092 21.8972 4.17518 21.2978 3.99959 20.6406L3.74959 19.7006L2.99959 16.9006L1.99959 13.1606C1.95027 12.912 1.99717 12.654 2.13083 12.4386C2.26449 12.2233 2.47493 12.0667 2.71959 12.0006L5.82959 11.1406C5.99388 11.1007 6.16531 11.1007 6.32959 11.1406C6.53731 11.2012 6.71977 11.3275 6.84959 11.5006L9.57959 15.1106L12.3896 14.3606L9.8896 5.00061C9.83571 4.75585 9.87569 4.49979 10.0016 4.28311C10.1276 4.06643 10.3303 3.90494 10.5696 3.83061L13.6596 3.00061ZM1.9996 28.0006H29.9996V30.0006H1.9996V28.0006Z" fill="#111111"/>
</svg>
