<svg width="32" height="32" viewBox="0 0 32 32" fill="none" xmlns="http://www.w3.org/2000/svg">
<path fill-rule="evenodd" clip-rule="evenodd" d="M2 2H4V28H30V30H4C3.46957 30 2.96086 29.7893 2.58579 29.4142C2.21071 29.0391 2 28.5304 2 28V2ZM23 9H30V16H28V12.41L19.71 20.71C19.617 20.8037 19.5064 20.8781 19.3846 20.9289C19.2627 20.9797 19.132 21.0058 19 21.0058C18.868 21.0058 18.7373 20.9797 18.6154 20.9289C18.4936 20.8781 18.383 20.8037 18.29 20.71L14 16.41L7.41 23L6 21.59L13.29 14.29C13.383 14.1963 13.4936 14.1219 13.6154 14.0711C13.7373 14.0203 13.868 13.9942 14 13.9942C14.132 13.9942 14.2627 14.0203 14.3846 14.0711C14.5064 14.1219 14.617 14.1963 14.71 14.29L19 18.59L26.59 11H23V9Z" fill="#111111"/>
</svg>
