<svg width="32" height="32" viewBox="0 0 32 32" fill="none" xmlns="http://www.w3.org/2000/svg">
<path fill-rule="evenodd" clip-rule="evenodd" d="M28 22H26V20H28V4H12V6H10V4C10.0006 3.46974 10.2114 2.96135 10.5864 2.5864C10.9614 2.21145 11.4697 2.00056 12 2H28C28.5303 2.00056 29.0386 2.21145 29.4136 2.5864C29.7886 2.96135 29.9994 3.46974 30 4V20C29.9994 20.5303 29.7886 21.0386 29.4136 21.4136C29.0386 21.7886 28.5303 21.9994 28 22ZM22 28H12V26H22V10H6V20H4V10C4.00056 9.46974 4.21145 8.96135 4.5864 8.5864C4.96135 8.21145 5.46974 8.00056 6 8H22C22.5303 8.00056 23.0386 8.21145 23.4136 8.5864C23.7886 8.96135 23.9994 9.46974 24 10V26C23.9994 26.5303 23.7886 27.0386 23.4136 27.4136C23.0386 27.7886 22.5303 27.9994 22 28ZM10 16V14H18V22H16V17.414L4.414 29L3 27.586L14.586 16H10Z" fill="#111111"/>
</svg>
