<svg width="32" height="32" viewBox="0 0 32 32" fill="none" xmlns="http://www.w3.org/2000/svg">
<path fill-rule="evenodd" clip-rule="evenodd" d="M19.4819 3.12377L29.4819 8.62377C29.6388 8.71004 29.7696 8.83684 29.8607 8.99093C29.9519 9.14502 30 9.32075 30 9.49977V22.4998C30 22.6788 29.9519 22.8545 29.8607 23.0086C29.7696 23.1627 29.6388 23.2895 29.4819 23.3758L19.4819 28.8758C19.3343 28.9571 19.1685 28.9998 19 28.9998C18.8315 28.9998 18.6657 28.9571 18.5181 28.8758L14 26.391L14.9638 24.6391L18 26.3084V15.5911L8.5181 10.3758C8.36131 10.2894 8.23057 10.1626 8.13951 10.0085C8.04845 9.85446 8.00041 9.67875 8.00041 9.49977C8.00041 9.32079 8.04845 9.14509 8.13951 8.99101C8.23057 8.83692 8.36131 8.7101 8.5181 8.62377L18.5181 3.12377C18.6657 3.04258 18.8315 3 19 3C19.1685 3 19.3343 3.04258 19.4819 3.12377ZM26.9248 9.49977L19 5.14137L11.0752 9.49977L19 13.8582L26.9248 9.49977ZM20 26.3085L28 21.9085V11.1911L20 15.5911V26.3085ZM10 15.9998H2V13.9998H10V15.9998ZM4 23.9998H12V21.9998H4V23.9998ZM14 19.9998H6V17.9998H14V19.9998Z" fill="#111111"/>
</svg>
