<svg width="32" height="32" viewBox="0 0 32 32" fill="none" xmlns="http://www.w3.org/2000/svg">
<path fill-rule="evenodd" clip-rule="evenodd" d="M28 22V16H30V22C30 22.5304 29.7893 23.0391 29.4142 23.4142C29.0391 23.7893 28.5304 24 28 24H20V28H24V30H8V28H12V24H4C3.46957 24 2.96086 23.7893 2.58579 23.4142C2.21071 23.0391 2 22.5304 2 22V6C2 5.46957 2.21071 4.96086 2.58579 4.58579C2.96086 4.21071 3.46957 4 4 4H15V6H4V22H28ZM14 28H18V24H14V28ZM18 4H30V6H18V4ZM30 8H18V10H30V8ZM18 12H24V14H18V12Z" fill="#111111"/>
</svg>
