<svg width="32" height="28" viewBox="0 0 32 28" fill="none" xmlns="http://www.w3.org/2000/svg">
<path fill-rule="evenodd" clip-rule="evenodd" d="M2 0H10V2H2V0ZM27 13.1719V4C26.9994 3.46976 26.7884 2.96142 26.4135 2.58649C26.0386 2.21155 25.5302 2.00064 25 2H13V4H25V13.1719L21.4141 9.5859L20 11L26 17L32 11L30.5859 9.5859L27 13.1719ZM5 23V13.8281L1.4141 17.4141L0 16L6 10L12 16L10.5859 17.4141L7 13.8281V23H19V25H7C6.46976 24.9994 5.96142 24.7884 5.58649 24.4135C5.21155 24.0386 5.00064 23.5302 5 23ZM22.5864 20.5864C22.9613 20.2114 23.4697 20.0005 24 20H28C28.5303 20.0005 29.0387 20.2114 29.4136 20.5864C29.7886 20.9613 29.9995 21.4697 30 22V26C29.9995 26.5303 29.7886 27.0387 29.4136 27.4136C29.0387 27.7886 28.5303 27.9995 28 28H24C23.4697 27.9995 22.9613 27.7886 22.5864 27.4136C22.2114 27.0387 22.0005 26.5303 22 26V22C22.0005 21.4697 22.2114 20.9613 22.5864 20.5864ZM28 26V22H23.9985L24 26H28ZM8 4H2V6H8V4Z" fill="#111111"/>
</svg>
