<svg width="33" height="32" viewBox="0 0 33 32" fill="none" xmlns="http://www.w3.org/2000/svg">
<path fill-rule="evenodd" clip-rule="evenodd" d="M12.5996 21H5.59961V27H12.5996V29H5.59961C5.06918 29 4.56047 28.7893 4.1854 28.4142C3.81032 28.0391 3.59961 27.5304 3.59961 27V5C3.59961 4.46957 3.81032 3.96086 4.1854 3.58579C4.56047 3.21071 5.06918 3 5.59961 3H21.5996C22.13 3 22.6388 3.21071 23.0138 3.58579C23.3889 3.96086 23.5996 4.46957 23.5996 5V16H21.5996V13H5.59961V19H12.5996V21ZM21.5996 5H5.59961V11H21.5996V5ZM8.59961 9C9.15189 9 9.59961 8.55228 9.59961 8C9.59961 7.44772 9.15189 7 8.59961 7C8.04732 7 7.59961 7.44772 7.59961 8C7.59961 8.55228 8.04732 9 8.59961 9ZM27.3099 19.5726C28.6923 20.5464 29.7586 21.9045 30.3765 23.4785L30.5996 24L30.3765 24.5215C29.7586 26.0955 28.6923 27.4536 27.3099 28.4274C25.9275 29.4013 24.2898 29.948 22.5996 30C20.9094 29.948 19.2717 29.4013 17.8893 28.4274C16.5069 27.4536 15.4407 26.0955 14.8227 24.5215L14.5996 24L14.8227 23.4785C15.4407 21.9045 16.5069 20.5464 17.8893 19.5726C19.2717 18.5987 20.9094 18.052 22.5996 18C24.2898 18.052 25.9275 18.5987 27.3099 19.5726ZM20.3773 27.3259C21.0351 27.7654 21.8085 28 22.5996 28C23.6601 27.9988 24.6768 27.577 25.4267 26.8271C26.1766 26.0772 26.5984 25.0605 26.5996 24C26.5996 23.2089 26.365 22.4355 25.9255 21.7777C25.486 21.1199 24.8612 20.6072 24.1303 20.3045C23.3994 20.0017 22.5952 19.9225 21.8192 20.0769C21.0433 20.2312 20.3306 20.6122 19.7712 21.1716C19.2118 21.731 18.8308 22.4437 18.6765 23.2196C18.5221 23.9956 18.6013 24.7998 18.9041 25.5307C19.2068 26.2616 19.7195 26.8864 20.3773 27.3259ZM24.5996 24C24.5996 25.1046 23.7042 26 22.5996 26C21.495 26 20.5996 25.1046 20.5996 24C20.5996 22.8954 21.495 22 22.5996 22C23.7042 22 24.5996 22.8954 24.5996 24ZM9.59961 16C9.59961 16.5523 9.15189 17 8.59961 17C8.04732 17 7.59961 16.5523 7.59961 16C7.59961 15.4477 8.04732 15 8.59961 15C9.15189 15 9.59961 15.4477 9.59961 16ZM8.59961 25C9.15189 25 9.59961 24.5523 9.59961 24C9.59961 23.4477 9.15189 23 8.59961 23C8.04732 23 7.59961 23.4477 7.59961 24C7.59961 24.5523 8.04732 25 8.59961 25Z" fill="#111111"/>
</svg>
