<svg width="33" height="32" viewBox="0 0 33 32" fill="none" xmlns="http://www.w3.org/2000/svg">
<path d="M26.8001 18C25.9157 18.0026 25.0572 18.2985 24.359 18.8414C23.6608 19.3843 23.1625 20.1435 22.9421 21H18.8001C18.0048 20.9991 17.2422 20.6828 16.6798 20.1204C16.1174 19.5579 15.801 18.7954 15.8001 18V14C15.7963 12.9146 15.436 11.8606 14.7745 11H22.9421C23.1855 11.9427 23.7644 12.7642 24.5701 13.3106C25.3759 13.857 26.3533 14.0908 27.3191 13.9681C28.285 13.8455 29.1729 13.3747 29.8165 12.6442C30.4601 11.9137 30.8151 10.9736 30.8151 10C30.8151 9.02644 30.4601 8.08628 29.8165 7.35578C29.1729 6.62527 28.285 6.15457 27.3191 6.03189C26.3533 5.90922 25.3759 6.143 24.5701 6.68941C23.7644 7.23582 23.1855 8.05735 22.9421 9.00001H10.6581C10.4147 8.05735 9.83591 7.23582 9.03013 6.68941C8.22435 6.143 7.24695 5.90922 6.28114 6.03189C5.31533 6.15457 4.42741 6.62527 3.78382 7.35578C3.14023 8.08628 2.78516 9.02644 2.78516 10C2.78516 10.9736 3.14023 11.9137 3.78382 12.6442C4.42741 13.3747 5.31533 13.8455 6.28114 13.9681C7.24695 14.0908 8.22435 13.857 9.03013 13.3106C9.83591 12.7642 10.4147 11.9427 10.6581 11H10.8001C11.5955 11.0009 12.3581 11.3172 12.9205 11.8797C13.4829 12.4421 13.7993 13.2046 13.8001 14V18C13.8017 19.3256 14.329 20.5965 15.2663 21.5338C16.2037 22.4712 17.4745 22.9984 18.8001 23H22.9421C23.1304 23.7227 23.5175 24.3782 24.0596 24.892C24.6016 25.4057 25.2769 25.7572 26.0086 25.9064C26.7404 26.0557 27.4994 25.9968 28.1993 25.7363C28.8993 25.4759 29.5122 25.0244 29.9684 24.4331C30.4247 23.8418 30.706 23.1344 30.7804 22.3913C30.8548 21.6482 30.7193 20.8991 30.3893 20.2291C30.0593 19.5591 29.5481 18.995 28.9136 18.601C28.2792 18.207 27.547 17.9988 26.8001 18ZM26.8001 8.00001C27.1957 8.00001 27.5824 8.11731 27.9113 8.33707C28.2402 8.55683 28.4965 8.86919 28.6479 9.23464C28.7993 9.6001 28.8389 10.0022 28.7617 10.3902C28.6845 10.7782 28.4941 11.1345 28.2144 11.4142C27.9346 11.6939 27.5783 11.8844 27.1903 11.9616C26.8024 12.0388 26.4002 11.9991 26.0348 11.8478C25.6693 11.6964 25.357 11.44 25.1372 11.1111C24.9174 10.7823 24.8001 10.3956 24.8001 10C24.8007 9.46976 25.0117 8.96141 25.3866 8.58647C25.7615 8.21153 26.2699 8.00062 26.8001 8.00001ZM6.80014 12C6.40458 12 6.0179 11.8827 5.689 11.6629C5.3601 11.4432 5.10376 11.1308 4.95238 10.7654C4.801 10.3999 4.7614 9.99779 4.83857 9.60983C4.91574 9.22187 5.10622 8.8655 5.38593 8.5858C5.66563 8.30609 6.022 8.11561 6.40996 8.03844C6.79792 7.96127 7.20005 8.00087 7.56551 8.15225C7.93096 8.30363 8.24332 8.55997 8.46308 8.88887C8.68284 9.21777 8.80014 9.60445 8.80014 10C8.79961 10.5303 8.58873 11.0387 8.21377 11.4136C7.83881 11.7886 7.33041 11.9995 6.80014 12ZM26.8001 24C26.4046 24 26.0179 23.8827 25.689 23.6629C25.3601 23.4432 25.1038 23.1308 24.9524 22.7654C24.801 22.3999 24.7614 21.9978 24.8386 21.6098C24.9157 21.2219 25.1062 20.8655 25.3859 20.5858C25.6656 20.3061 26.022 20.1156 26.41 20.0384C26.7979 19.9613 27.2001 20.0009 27.5655 20.1523C27.931 20.3036 28.2433 20.56 28.4631 20.8889C28.6828 21.2178 28.8001 21.6044 28.8001 22C28.7994 22.5302 28.5885 23.0385 28.2136 23.4134C27.8386 23.7884 27.3304 23.9993 26.8001 24Z" fill="#111111"/>
</svg>
