<svg width="33" height="32" viewBox="0 0 33 32" fill="none" xmlns="http://www.w3.org/2000/svg">
<g clip-path="url(#clip0_891_138445)">
<path d="M9.19922 8C9.7515 8 10.1992 7.55228 10.1992 7C10.1992 6.44772 9.7515 6 9.19922 6C8.64693 6 8.19922 6.44772 8.19922 7C8.19922 7.55228 8.64693 8 9.19922 8Z" fill="#111111"/>
<path d="M27.1992 22V18C27.1992 17.4696 26.9885 16.9609 26.6134 16.5858C26.2384 16.2107 25.7297 16 25.1992 16H17.1992V12H26.1992C26.7297 12 27.2384 11.7893 27.6134 11.4142C27.9885 11.0391 28.1992 10.5304 28.1992 10V4C28.1992 3.46957 27.9885 2.96086 27.6134 2.58579C27.2384 2.21071 26.7297 2 26.1992 2H6.19922C5.66879 2 5.16008 2.21071 4.78501 2.58579C4.40993 2.96086 4.19922 3.46957 4.19922 4V10C4.19922 10.5304 4.40993 11.0391 4.78501 11.4142C5.16008 11.7893 5.66879 12 6.19922 12H15.1992V16H7.19922C6.66879 16 6.16008 16.2107 5.78501 16.5858C5.40993 16.9609 5.19922 17.4696 5.19922 18V22H2.19922V30H10.1992V22H7.19922V18H15.1992V22H12.1992V30H20.1992V22H17.1992V18H25.1992V22H22.1992V30H30.1992V22H27.1992ZM8.19922 28H4.19922V24H8.19922V28ZM18.1992 24V28H14.1992V24H18.1992ZM6.19922 10V4H26.1992V10H6.19922ZM28.1992 28H24.1992V24H28.1992V28Z" fill="#111111"/>
</g>
<defs>
<clipPath id="clip0_891_138445">
<rect width="32" height="32" fill="white" transform="translate(0.199219)"/>
</clipPath>
</defs>
</svg>
