<svg width="33" height="32" viewBox="0 0 33 32" fill="none" xmlns="http://www.w3.org/2000/svg">
<path fill-rule="evenodd" clip-rule="evenodd" d="M6.40039 10H26.4004C26.9307 9.99944 27.439 9.78855 27.814 9.4136C28.1889 9.03865 28.3998 8.53026 28.4004 8V4C28.3998 3.46974 28.1889 2.96135 27.814 2.5864C27.439 2.21145 26.9307 2.00056 26.4004 2H6.40039C5.87013 2.00056 5.36174 2.21145 4.98679 2.5864C4.61184 2.96135 4.40095 3.46974 4.40039 4V8C4.40095 8.53026 4.61184 9.03865 4.98679 9.4136C5.36174 9.78855 5.87013 9.99944 6.40039 10ZM6.40039 8V4H26.4004V8H6.40039ZM10.4004 6C10.4004 6.55228 9.95268 7 9.40039 7C8.84811 7 8.40039 6.55228 8.40039 6C8.40039 5.44772 8.84811 5 9.40039 5C9.95268 5 10.4004 5.44772 10.4004 6ZM9.40039 17C9.95268 17 10.4004 16.5523 10.4004 16C10.4004 15.4477 9.95268 15 9.40039 15C8.84811 15 8.40039 15.4477 8.40039 16C8.40039 16.5523 8.84811 17 9.40039 17ZM6.40039 20H26.4004C26.9307 19.9994 27.439 19.7886 27.814 19.4136C28.1889 19.0386 28.3998 18.5303 28.4004 18V14C28.3998 13.4697 28.1889 12.9614 27.814 12.5864C27.439 12.2114 26.9307 12.0006 26.4004 12H6.40039C5.87013 12.0006 5.36174 12.2114 4.98679 12.5864C4.61184 12.9614 4.40095 13.4697 4.40039 14V18C4.40095 18.5303 4.61184 19.0386 4.98679 19.4136C5.36174 19.7886 5.87013 19.9994 6.40039 20ZM6.40039 18V14H26.4004V18H6.40039ZM9.40039 27C9.95268 27 10.4004 26.5523 10.4004 26C10.4004 25.4477 9.95268 25 9.40039 25C8.84811 25 8.40039 25.4477 8.40039 26C8.40039 26.5523 8.84811 27 9.40039 27ZM6.40039 30H26.4004C26.9307 29.9994 27.439 29.7886 27.814 29.4136C28.1889 29.0386 28.3998 28.5303 28.4004 28V24C28.3998 23.4697 28.1889 22.9614 27.814 22.5864C27.439 22.2114 26.9307 22.0006 26.4004 22H6.40039C5.87013 22.0006 5.36174 22.2114 4.98679 22.5864C4.61184 22.9614 4.40095 23.4697 4.40039 24V28C4.40095 28.5303 4.61184 29.0386 4.98679 29.4136C5.36174 29.7886 5.87013 29.9994 6.40039 30ZM6.40039 28V24H26.4004V28H6.40039Z" fill="#111111"/>
</svg>
