<svg width="618" height="538" viewBox="0 0 618 538" fill="none" xmlns="http://www.w3.org/2000/svg">
<rect x="102" y="131" width="414" height="276" rx="3.45" fill="#222222"/>
<path d="M102 134.45C102 132.545 103.545 131 105.45 131H512.55C514.455 131 516 132.545 516 134.45V151.7H102V134.45Z" fill="black"/>
<circle cx="115.8" cy="141.35" r="3.45" fill="#EE6F64"/>
<circle cx="126.15" cy="141.35" r="3.45" fill="#F7C154"/>
<circle cx="136.5" cy="141.35" r="3.45" fill="#66C759"/>
<rect x="136.5" y="172.4" width="58.65" height="13.8" rx="5.175" fill="white" fill-opacity="0.65"/>
<rect x="231.375" y="172.4" width="41.4" height="13.8" rx="5.175" fill="white" fill-opacity="0.2"/>
<rect x="283.125" y="172.4" width="41.4" height="13.8" rx="5.175" fill="white" fill-opacity="0.2"/>
<circle cx="471.15" cy="179.3" r="10.35" fill="#D9D9D9"/>
<rect x="248.625" y="234.5" width="120.75" height="22.425" rx="6.9" fill="white" fill-opacity="0.65"/>
<rect x="203.775" y="277.625" width="210.45" height="10.35" rx="3.45" fill="white" fill-opacity="0.35"/>
<rect x="245.175" y="315.575" width="50.025" height="17.25" rx="3.45" fill="#115EF5"/>
<rect x="322.8" y="315.575" width="50.025" height="17.25" rx="3.45" fill="#D9D9D9"/>
<rect x="94" y="123" width="430" height="292" rx="11.45" stroke="black" stroke-opacity="0.1" stroke-width="16"/>
<path d="M27.424 31.319C25.394 31.319 23.886 30.7487 22.9 29.608C21.9333 28.448 21.45 26.7177 21.45 24.417V17.341C21.45 15.1563 21.9527 13.5033 22.958 12.382C23.9827 11.2413 25.4713 10.671 27.424 10.671C29.454 10.671 30.9523 11.2317 31.919 12.353C32.905 13.4743 33.398 15.137 33.398 17.341V24.417C33.398 26.6983 32.905 28.419 31.919 29.579C30.9523 30.739 29.454 31.319 27.424 31.319ZM27.424 28.013C28.2747 28.013 28.845 27.723 29.135 27.143C29.4443 26.5437 29.599 25.5287 29.599 24.098V17.892C29.599 16.4613 29.4443 15.456 29.135 14.876C28.845 14.296 28.2747 14.006 27.424 14.006C26.5733 14.006 26.003 14.296 25.713 14.876C25.423 15.456 25.278 16.4613 25.278 17.892V24.098C25.278 25.5287 25.423 26.5437 25.713 27.143C26.0223 27.723 26.5927 28.013 27.424 28.013ZM39.2478 15.195L35.8838 17.631V13.513L39.2478 10.99H43.0468V31H39.2478V15.195Z" fill="white" fill-opacity="0.8"/>
</svg>
