<svg width="618" height="538" viewBox="0 0 618 538" fill="none" xmlns="http://www.w3.org/2000/svg">
<path d="M169.995 154.709L260.41 232.508" stroke="white" stroke-opacity="0.15" stroke-width="3.1619"/>
<path d="M176.301 135.785L361.335 184.146" stroke="white" stroke-opacity="0.15" stroke-width="3.1619"/>
<path d="M132.145 337.641L258.305 282.971" stroke="white" stroke-opacity="0.15" stroke-width="3.1619"/>
<path d="M346.617 358.667L460.161 308.203" stroke="white" stroke-opacity="0.15" stroke-width="3.1619"/>
<path d="M325.59 234.61L371.848 209.378" stroke="white" stroke-opacity="0.15" stroke-width="3.1619"/>
<path d="M334.001 268.253L453.853 293.485" stroke="white" stroke-opacity="0.15" stroke-width="3.1619"/>
<path d="M411.801 215.686L462.265 274.561" stroke="white" stroke-opacity="0.15" stroke-width="3.1619"/>
<path d="M132.145 358.667L279.332 367.078" stroke="white" stroke-opacity="0.15" stroke-width="3.1619"/>
<path d="M300.359 299.793L306.667 335.538" stroke="white" stroke-opacity="0.15" stroke-width="3.1619"/>
<path d="M143.71 161.017L114.273 322.922" stroke="white" stroke-opacity="0.15" stroke-width="3.1619"/>
<circle cx="293.002" cy="257.739" r="42.0533" fill="black"/>
<circle cx="293.002" cy="257.739" r="50.0533" stroke="black" stroke-opacity="0.1" stroke-width="16"/>
<circle cx="396.033" cy="190.454" r="33.6427" fill="white" fill-opacity="0.08"/>
<circle cx="396.033" cy="190.454" r="32.0617" stroke="white" stroke-opacity="0.8" stroke-width="3.1619"/>
<circle cx="478.036" cy="293.485" r="25.232" fill="white" fill-opacity="0.08"/>
<circle cx="478.036" cy="293.485" r="23.651" stroke="white" stroke-opacity="0.8" stroke-width="3.1619"/>
<circle cx="314.027" cy="369.181" r="33.6427" fill="white" fill-opacity="0.08"/>
<circle cx="314.027" cy="369.181" r="32.0617" stroke="white" stroke-opacity="0.8" stroke-width="3.1619"/>
<circle cx="107.967" cy="348.154" r="25.232" fill="white" fill-opacity="0.08"/>
<circle cx="107.967" cy="348.154" r="23.651" stroke="white" stroke-opacity="0.8" stroke-width="3.1619"/>
<circle cx="152.122" cy="135.785" r="25.232" fill="white" fill-opacity="0.08"/>
<circle cx="152.122" cy="135.785" r="23.651" stroke="white" stroke-opacity="0.8" stroke-width="3.1619"/>
<circle cx="292.499" cy="256.5" r="18.5" fill="#115EF5"/>
<path d="M27.424 31.319C25.394 31.319 23.886 30.7487 22.9 29.608C21.9333 28.448 21.45 26.7177 21.45 24.417V17.341C21.45 15.1563 21.9527 13.5033 22.958 12.382C23.9827 11.2413 25.4713 10.671 27.424 10.671C29.454 10.671 30.9523 11.2317 31.919 12.353C32.905 13.4743 33.398 15.137 33.398 17.341V24.417C33.398 26.6983 32.905 28.419 31.919 29.579C30.9523 30.739 29.454 31.319 27.424 31.319ZM27.424 28.013C28.2747 28.013 28.845 27.723 29.135 27.143C29.4443 26.5437 29.599 25.5287 29.599 24.098V17.892C29.599 16.4613 29.4443 15.456 29.135 14.876C28.845 14.296 28.2747 14.006 27.424 14.006C26.5733 14.006 26.003 14.296 25.713 14.876C25.423 15.456 25.278 16.4613 25.278 17.892V24.098C25.278 25.5287 25.423 26.5437 25.713 27.143C26.0223 27.723 26.5927 28.013 27.424 28.013ZM42.0608 31.319C40.1855 31.319 38.7258 30.8743 37.6818 29.985C36.6572 29.0763 36.1448 27.8003 36.1448 26.157V25.548H39.6828V25.983C39.6828 26.679 39.8762 27.2107 40.2628 27.578C40.6688 27.926 41.2488 28.1 42.0028 28.1C42.7182 28.1 43.2788 27.868 43.6848 27.404C44.1102 26.94 44.3228 26.3117 44.3228 25.519V24.997C44.3228 24.127 44.1005 23.46 43.6558 22.996C43.2112 22.532 42.5635 22.3 41.7128 22.3H40.6978V19.081H41.6838C42.4185 19.081 42.9888 18.8683 43.3948 18.443C43.8008 18.0177 44.0038 17.428 44.0038 16.674V16.239C44.0038 15.5043 43.8105 14.934 43.4238 14.528C43.0565 14.1027 42.5442 13.89 41.8868 13.89C41.2102 13.89 40.6882 14.0833 40.3208 14.47C39.9535 14.8373 39.7698 15.3497 39.7698 16.007V16.5H36.2898V16.007C36.2898 14.325 36.7925 13.02 37.7978 12.092C38.8225 11.1447 40.2338 10.671 42.0318 10.671C43.7912 10.671 45.1735 11.1543 46.1788 12.121C47.1842 13.0683 47.6868 14.3443 47.6868 15.949V16.384C47.6868 17.254 47.4838 18.037 47.0778 18.733C46.6718 19.4097 46.0918 19.951 45.3378 20.357C46.2078 20.7243 46.8652 21.3043 47.3098 22.097C47.7738 22.8897 48.0058 23.8467 48.0058 24.968V25.519C48.0058 26.6983 47.7545 27.723 47.2518 28.593C46.7492 29.463 46.0435 30.1397 45.1348 30.623C44.2262 31.087 43.2015 31.319 42.0608 31.319Z" fill="white" fill-opacity="0.8"/>
</svg>
