<svg width="32" height="32" viewBox="0 0 32 32" fill="none" xmlns="http://www.w3.org/2000/svg">
<path fill-rule="evenodd" clip-rule="evenodd" d="M8.22202 4.35943C10.5243 2.82109 13.2311 2 16 2C19.713 2 23.274 3.475 25.8995 6.1005C28.525 8.72601 30 12.287 30 16C30 18.7689 29.1789 21.4757 27.6406 23.778C26.1022 26.0803 23.9157 27.8747 21.3576 28.9343C18.7994 29.9939 15.9845 30.2712 13.2687 29.731C10.553 29.1908 8.05845 27.8574 6.10051 25.8995C4.14258 23.9416 2.80921 21.447 2.26901 18.7313C1.72882 16.0155 2.00607 13.2006 3.06569 10.6424C4.12532 8.08427 5.91973 5.89777 8.22202 4.35943ZM9.33316 25.9776C11.3066 27.2962 13.6266 28 16 28C19.1826 28 22.2348 26.7357 24.4853 24.4853C26.7357 22.2348 28 19.1826 28 16C28 13.6266 27.2962 11.3065 25.9776 9.33316C24.6591 7.35977 22.7849 5.8217 20.5922 4.91345C18.3995 4.00519 15.9867 3.76755 13.6589 4.23058C11.3312 4.6936 9.19296 5.83649 7.51472 7.51472C5.83649 9.19295 4.69361 11.3311 4.23058 13.6589C3.76756 15.9867 4.0052 18.3995 4.91345 20.5922C5.8217 22.7849 7.35977 24.6591 9.33316 25.9776ZM9 16.413L14 21.414L23 12.415L21.585 11L14 18.586L10.413 15L9 16.413Z" fill="#111111"/>
</svg>
