<svg width="32" height="33" viewBox="0 0 32 33" fill="none" xmlns="http://www.w3.org/2000/svg">
<path fill-rule="evenodd" clip-rule="evenodd" d="M19.4819 3.62377L29.4819 9.12377C29.6388 9.21004 29.7696 9.33684 29.8607 9.49093C29.9519 9.64502 30 9.82075 30 9.99977V22.9998C30 23.1788 29.9519 23.3545 29.8607 23.5086C29.7696 23.6627 29.6388 23.7895 29.4819 23.8758L19.4819 29.3758C19.3343 29.4571 19.1685 29.4998 19 29.4998C18.8315 29.4998 18.6657 29.4571 18.5181 29.3758L14 26.891L14.9638 25.1391L18 26.8084V16.0911L8.5181 10.8758C8.36131 10.7894 8.23057 10.6626 8.13951 10.5085C8.04845 10.3545 8.00041 10.1788 8.00041 9.99977C8.00041 9.82079 8.04845 9.64509 8.13951 9.49101C8.23057 9.33692 8.36131 9.2101 8.5181 9.12377L18.5181 3.62377C18.6657 3.54258 18.8315 3.5 19 3.5C19.1685 3.5 19.3343 3.54258 19.4819 3.62377ZM26.9248 9.99977L19 5.64137L11.0752 9.99977L19 14.3582L26.9248 9.99977ZM20 26.8085L28 22.4085V11.6911L20 16.0911V26.8085ZM10 16.4998H2V14.4998H10V16.4998ZM4 24.4998H12V22.4998H4V24.4998ZM14 20.4998H6V18.4998H14V20.4998Z" fill="#111111"/>
</svg>
