<svg width="32" height="32" viewBox="0 0 32 32" fill="none" xmlns="http://www.w3.org/2000/svg">
<path d="M28.7071 19.293L26 16.5859V13C25.9968 10.522 25.0749 8.13311 23.4125 6.29539C21.7501 4.45768 19.4653 3.30163 17 3.0508V1H15V3.0508C12.5347 3.30163 10.2499 4.45768 8.58753 6.29539C6.92514 8.13311 6.00321 10.522 6 13V16.5859L3.2929 19.293C3.10539 19.4805 3.00003 19.7348 3 20V23C3 23.2652 3.10536 23.5196 3.29289 23.7071C3.48043 23.8946 3.73478 24 4 24H11V24.7768C10.9783 26.0454 11.4255 27.2774 12.2559 28.2367C13.0863 29.196 14.2414 29.8151 15.5 29.9755C16.1951 30.0445 16.897 29.9672 17.5605 29.7486C18.224 29.5301 18.8344 29.175 19.3524 28.7064C19.8705 28.2378 20.2847 27.6659 20.5684 27.0276C20.8522 26.3892 20.9992 25.6986 21 25V24H28C28.2652 24 28.5196 23.8946 28.7071 23.7071C28.8946 23.5196 29 23.2652 29 23V20C29 19.7348 28.8946 19.4805 28.7071 19.293ZM19 25C19 25.7956 18.6839 26.5587 18.1213 27.1213C17.5587 27.6839 16.7956 28 16 28C15.2044 28 14.4413 27.6839 13.8787 27.1213C13.3161 26.5587 13 25.7956 13 25V24H19V25ZM27 22H5V20.4141L7.707 17.707C7.89455 17.5195 7.99994 17.2652 8 17V13C8 10.8783 8.84285 8.84344 10.3431 7.34315C11.8434 5.84285 13.8783 5 16 5C18.1217 5 20.1566 5.84285 21.6569 7.34315C23.1571 8.84344 24 10.8783 24 13V17C24.0001 17.2652 24.1054 17.5195 24.293 17.707L27 20.4141V22Z" fill="#111111"/>
</svg>
