<svg width="32" height="33" viewBox="0 0 32 33" fill="none" xmlns="http://www.w3.org/2000/svg">
<path fill-rule="evenodd" clip-rule="evenodd" d="M11 4.5H21C22.3256 4.50156 23.5965 5.02885 24.5338 5.96619C25.4712 6.90353 25.9984 8.1744 26 9.5V23.5C25.9993 24.0302 25.7883 24.5385 25.4134 24.9134C25.0385 25.2883 24.5302 25.4993 24 25.5V28.5H22V25.5H10V28.5H8V25.5C7.46975 25.4994 6.9614 25.2885 6.58646 24.9135C6.21152 24.5386 6.00061 24.0302 6 23.5V9.5C6.00156 8.1744 6.52885 6.90353 7.46619 5.96619C8.40353 5.02885 9.6744 4.50156 11 4.5ZM24.0009 16.5L24 10.5H8V16.5H24.0009ZM21 6.5H11C10.3816 6.5019 9.77898 6.69516 9.27483 7.05326C8.77068 7.41136 8.38974 7.91674 8.1843 8.5H23.8157C23.6103 7.91674 23.2293 7.41136 22.7252 7.05326C22.221 6.69516 21.6184 6.5019 21 6.5ZM8 18.5V23.5H24.002L24.0012 18.5H8ZM5 11.5H3V15.5H5V11.5ZM29 11.5H27V15.5H29V11.5ZM20 22.5V20.5H22V22.5H20ZM12 20.5H10V22.5H12V20.5Z" fill="#115EF5"/>
</svg>
