<svg width="32" height="32" viewBox="0 0 32 32" fill="none" xmlns="http://www.w3.org/2000/svg">
<path fill-rule="evenodd" clip-rule="evenodd" d="M6 18H16C16.5304 18 17.0391 17.7893 17.4142 17.4142C17.7893 17.0391 18 16.5304 18 16V6C18 5.46957 17.7893 4.96086 17.4142 4.58579C17.0391 4.21071 16.5304 4 16 4H6C5.46957 4 4.96086 4.21071 4.58579 4.58579C4.21071 4.96086 4 5.46957 4 6V16C4 16.5304 4.21071 17.0391 4.58579 17.4142C4.96086 17.7893 5.46957 18 6 18ZM6 16V6H16V16H6ZM26 16V12H22V16H26ZM22 10H26C26.5304 10 27.0391 10.2107 27.4142 10.5858C27.7893 10.9609 28 11.4696 28 12V16C28 16.5304 27.7893 17.0391 27.4142 17.4142C27.0391 17.7893 26.5304 18 26 18H22C21.4696 18 20.9609 17.7893 20.5858 17.4142C20.2107 17.0391 20 16.5304 20 16V12C20 11.4696 20.2107 10.9609 20.5858 10.5858C20.9609 10.2107 21.4696 10 22 10ZM26 22V26H22V22H26ZM26 20H22C21.4696 20 20.9609 20.2107 20.5858 20.5858C20.2107 20.9609 20 21.4696 20 22V26C20 26.5304 20.2107 27.0391 20.5858 27.4142C20.9609 27.7893 21.4696 28 22 28H26C26.5304 28 27.0391 27.7893 27.4142 27.4142C27.7893 27.0391 28 26.5304 28 26V22C28 21.4696 27.7893 20.9609 27.4142 20.5858C27.0391 20.2107 26.5304 20 26 20ZM16 26V22H12V26H16ZM12 20H16C16.5304 20 17.0391 20.2107 17.4142 20.5858C17.7893 20.9609 18 21.4696 18 22V26C18 26.5304 17.7893 27.0391 17.4142 27.4142C17.0391 27.7893 16.5304 28 16 28H12C11.4696 28 10.9609 27.7893 10.5858 27.4142C10.2107 27.0391 10 26.5304 10 26V22C10 21.4696 10.2107 20.9609 10.5858 20.5858C10.9609 20.2107 11.4696 20 12 20Z" fill="#111111"/>
</svg>
