<svg width="32" height="32" viewBox="0 0 32 32" fill="none" xmlns="http://www.w3.org/2000/svg">
<path d="M26 13C27.0605 12.9988 28.0772 12.577 28.8271 11.8271C29.577 11.0772 29.9988 10.0605 30 9V6H27C25.9762 6.00167 24.9924 6.39794 24.2532 7.1064C23.7352 6.16633 22.9746 5.38231 22.0507 4.83597C21.1268 4.28964 20.0733 4.00096 19 4H16V7C16.0017 8.59076 16.6344 10.1159 17.7593 11.2407C18.8841 12.3656 20.4092 12.9983 22 13H23V26H11V21H12C13.0605 20.9988 14.0772 20.577 14.8271 19.8271C15.577 19.0772 15.9988 18.0605 16 17V14H13C11.9762 14.0017 10.9924 14.3979 10.2532 15.1064C9.73518 14.1663 8.97462 13.3823 8.05072 12.836C7.12682 12.2896 6.07335 12.001 5 12H2V15C2.00175 16.5908 2.63445 18.1159 3.75929 19.2407C4.88413 20.3656 6.40924 20.9983 8 21H9V26H2V28H30V26H25V13H26ZM25 10C25.0005 9.46973 25.2114 8.96133 25.5864 8.58637C25.9613 8.21141 26.4697 8.00053 27 8H28V9C27.9995 9.53027 27.7886 10.0387 27.4136 10.4136C27.0387 10.7886 26.5303 10.9995 26 11H25V10ZM11 18C11.0005 17.4697 11.2114 16.9613 11.5864 16.5864C11.9613 16.2114 12.4697 16.0005 13 16H14V17C13.9995 17.5303 13.7886 18.0387 13.4136 18.4136C13.0387 18.7886 12.5303 18.9995 12 19H11V18ZM9 19H8C6.9395 18.9988 5.92278 18.577 5.17289 17.8271C4.423 17.0772 4.00119 16.0605 4 15V14H5C6.0605 14.0012 7.07722 14.423 7.82711 15.1729C8.577 15.9228 8.99881 16.9395 9 18V19ZM23 11H22C20.9395 10.9988 19.9228 10.577 19.1729 9.82711C18.423 9.07722 18.0012 8.0605 18 7V6H19C20.0605 6.00119 21.0772 6.423 21.8271 7.17289C22.577 7.92278 22.9988 8.9395 23 10V11Z" fill="#111111"/>
</svg>
