<svg width="32" height="32" viewBox="0 0 32 32" fill="none" xmlns="http://www.w3.org/2000/svg">
<path fill-rule="evenodd" clip-rule="evenodd" d="M4 4H28C28.5304 4 29.0391 4.21071 29.4142 4.58579C29.7893 4.96086 30 5.46957 30 6V26C30 26.5304 29.7893 27.0391 29.4142 27.4142C29.0391 27.7893 28.5304 28 28 28H4C3.46957 28 2.96086 27.7893 2.58579 27.4142C2.21071 27.0391 2 26.5304 2 26V6C2 5.46957 2.21071 4.96086 2.58579 4.58579C2.96086 4.21071 3.46957 4 4 4ZM28 8V6H4V8H28ZM4 10V26H28V10H4ZM19 14H8V16H19V14ZM21 19H8V21H21V19Z" fill="#111111"/>
</svg>
