<svg width="32" height="32" viewBox="0 0 32 32" fill="none" xmlns="http://www.w3.org/2000/svg">
<path d="M28 2H17C16.4697 2.00053 15.9613 2.21141 15.5864 2.58637C15.2114 2.96133 15.0005 3.46973 15 4V10H4C3.46973 10.0005 2.96133 10.2114 2.58637 10.5864C2.21141 10.9613 2.00053 11.4697 2 12V28C2.00061 28.5302 2.21152 29.0386 2.58646 29.4135C2.9614 29.7885 3.46975 29.9994 4 30H15C15.5302 29.9994 16.0386 29.7885 16.4135 29.4135C16.7885 29.0386 16.9994 28.5302 17 28V22H28C28.5302 21.9993 29.0385 21.7883 29.4134 21.4134C29.7883 21.0385 29.9993 20.5302 30 20V4C29.9994 3.46975 29.7885 2.9614 29.4135 2.58646C29.0386 2.21152 28.5302 2.00061 28 2ZM28 4V8H17V4H28ZM15.0009 22H4V18H15L15.0009 22ZM17 10H28.0007L28.0012 14H17V10ZM15 12V16H4V12H15ZM4 28V24H15.0011V28H4ZM17 20V16H28.0015V20H17Z" fill="#111111"/>
</svg>
