<svg width="32" height="33" viewBox="0 0 32 33" fill="none" xmlns="http://www.w3.org/2000/svg">
<path fill-rule="evenodd" clip-rule="evenodd" d="M21.7777 9.82588C22.4355 10.2654 23.2089 10.5 24 10.5C25.0605 10.4989 26.0773 10.0771 26.8272 9.3272C27.5771 8.5773 27.9989 7.56053 28 6.5C28 5.70888 27.7654 4.93552 27.3259 4.27772C26.8864 3.61992 26.2616 3.10723 25.5307 2.80448C24.7998 2.50173 23.9956 2.42252 23.2196 2.57686C22.4437 2.7312 21.731 3.11216 21.1716 3.67157C20.6122 4.23098 20.2312 4.94372 20.0769 5.71964C19.9225 6.49556 20.0017 7.29983 20.3045 8.03074C20.6072 8.76164 21.1199 9.38635 21.7777 9.82588ZM22.8889 4.83706C23.2178 4.6173 23.6044 4.5 24 4.5C24.5302 4.50061 25.0386 4.71152 25.4135 5.08646C25.7885 5.4614 25.9994 5.96976 26 6.5C26 6.89556 25.8827 7.28224 25.6629 7.61114C25.4432 7.94004 25.1308 8.19639 24.7654 8.34776C24.3999 8.49914 23.9978 8.53874 23.6098 8.46157C23.2219 8.3844 22.8655 8.19392 22.5858 7.91422C22.3061 7.63451 22.1156 7.27814 22.0384 6.89018C21.9613 6.50222 22.0009 6.10009 22.1522 5.73463C22.3036 5.36918 22.56 5.05683 22.8889 4.83706ZM18 16.5H20V14.5C20.0002 14.2349 20.1057 13.9806 20.2932 13.7932C20.4806 13.6057 20.7349 13.5002 21 13.5H27C27.2651 13.5002 27.5194 13.6057 27.7068 13.7932C27.8943 13.9806 27.9998 14.2349 28 14.5V16.5H30V14.5C29.9991 13.7046 29.6828 12.9421 29.1204 12.3796C28.5579 11.8172 27.7954 11.5009 27 11.5H21C20.2046 11.5009 19.4421 11.8172 18.8796 12.3796C18.3172 12.9421 18.0009 13.7046 18 14.5V16.5ZM21.7777 24.8259C22.4355 25.2654 23.2089 25.5 24 25.5C25.0605 25.499 26.0774 25.0772 26.8273 24.3273C27.5772 23.5774 27.999 22.5606 28 21.5C28 20.7089 27.7654 19.9355 27.3259 19.2777C26.8864 18.6199 26.2616 18.1072 25.5307 17.8045C24.7998 17.5017 23.9956 17.4225 23.2196 17.5769C22.4437 17.7312 21.731 18.1122 21.1716 18.6716C20.6122 19.231 20.2312 19.9437 20.0769 20.7196C19.9225 21.4956 20.0017 22.2998 20.3045 23.0307C20.6072 23.7616 21.1199 24.3864 21.7777 24.8259ZM22.8889 19.8371C23.2178 19.6173 23.6044 19.5 24 19.5C24.5302 19.5007 25.0385 19.7117 25.4134 20.0866C25.7883 20.4615 25.9993 20.9698 26 21.5C26 21.8956 25.8827 22.2822 25.6629 22.6111C25.4432 22.94 25.1308 23.1964 24.7654 23.3478C24.3999 23.4991 23.9978 23.5387 23.6098 23.4616C23.2219 23.3844 22.8655 23.1939 22.5858 22.9142C22.3061 22.6345 22.1156 22.2781 22.0384 21.8902C21.9613 21.5022 22.0009 21.1001 22.1522 20.7346C22.3036 20.3692 22.56 20.0568 22.8889 19.8371ZM20 31.5H18V29.5C18.0009 28.7046 18.3172 27.9421 18.8796 27.3796C19.4421 26.8172 20.2046 26.5009 21 26.5H27C27.7954 26.5009 28.5579 26.8172 29.1204 27.3796C29.6828 27.9421 29.9991 28.7046 30 29.5V31.5H28V29.5C27.9998 29.2348 27.8944 28.9806 27.7069 28.7931C27.5194 28.6056 27.2652 28.5002 27 28.5H21C20.7348 28.5002 20.4806 28.6056 20.2931 28.7931C20.1056 28.9806 20.0002 29.2348 20 29.5V31.5ZM2 31.5H4V29.5C4.00024 29.2349 4.10567 28.9806 4.29316 28.7932C4.48064 28.6057 4.73486 28.5002 5 28.5H11C11.2651 28.5002 11.5194 28.6057 11.7068 28.7932C11.8943 28.9806 11.9998 29.2349 12 29.5V31.5H14V29.5C13.9991 28.7046 13.6828 27.9421 13.1204 27.3796C12.5579 26.8172 11.7954 26.5009 11 26.5H5C4.20462 26.5009 3.44206 26.8172 2.87964 27.3796C2.31722 27.9421 2.00087 28.7046 2 29.5V31.5ZM5.77772 24.8259C6.43552 25.2654 7.20888 25.5 8 25.5C9.06053 25.4989 10.0773 25.0771 10.8272 24.3272C11.5771 23.5773 11.9989 22.5605 12 21.5C12 20.7089 11.7654 19.9355 11.3259 19.2777C10.8864 18.6199 10.2616 18.1072 9.53074 17.8045C8.79983 17.5017 7.99556 17.4225 7.21964 17.5769C6.44372 17.7312 5.73098 18.1122 5.17157 18.6716C4.61216 19.231 4.2312 19.9437 4.07686 20.7196C3.92252 21.4956 4.00173 22.2998 4.30448 23.0307C4.60723 23.7616 5.11992 24.3864 5.77772 24.8259ZM6.88886 19.8371C7.21776 19.6173 7.60444 19.5 8 19.5C8.53025 19.5006 9.0386 19.7115 9.41354 20.0865C9.78848 20.4614 9.99939 20.9698 10 21.5C10 21.8956 9.8827 22.2822 9.66294 22.6111C9.44318 22.94 9.13082 23.1964 8.76537 23.3478C8.39992 23.4991 7.99778 23.5387 7.60982 23.4616C7.22186 23.3844 6.86549 23.1939 6.58579 22.9142C6.30608 22.6345 6.1156 22.2781 6.03843 21.8902C5.96126 21.5022 6.00087 21.1001 6.15224 20.7346C6.30362 20.3692 6.55996 20.0568 6.88886 19.8371ZM2 16.5H4V14.5C4.00034 14.2349 4.10581 13.9807 4.29327 13.7933C4.48073 13.6058 4.73489 13.5003 5 13.5H11C11.2651 13.5003 11.5193 13.6058 11.7067 13.7933C11.8942 13.9807 11.9997 14.2349 12 14.5V16.5H14V14.5C13.9991 13.7046 13.6828 12.9421 13.1204 12.3796C12.5579 11.8172 11.7954 11.5009 11 11.5H5C4.20462 11.5009 3.44206 11.8172 2.87964 12.3796C2.31722 12.9421 2.00087 13.7046 2 14.5V16.5ZM5.77772 9.82588C6.43552 10.2654 7.20888 10.5 8 10.5C9.0605 10.4988 10.0772 10.077 10.8271 9.32711C11.577 8.57723 11.9988 7.5605 12 6.5C12 5.70888 11.7654 4.93552 11.3259 4.27772C10.8864 3.61992 10.2616 3.10723 9.53074 2.80448C8.79983 2.50173 7.99556 2.42252 7.21964 2.57686C6.44372 2.7312 5.73098 3.11216 5.17157 3.67157C4.61216 4.23098 4.2312 4.94372 4.07686 5.71964C3.92252 6.49556 4.00173 7.29983 4.30448 8.03074C4.60723 8.76164 5.11992 9.38635 5.77772 9.82588ZM6.88886 4.83706C7.21776 4.6173 7.60444 4.5 8 4.5C8.53027 4.50053 9.03867 4.71142 9.41363 5.08637C9.78859 5.46133 9.99947 5.96973 10 6.5C10 6.89556 9.8827 7.28224 9.66294 7.61114C9.44318 7.94004 9.13082 8.19639 8.76537 8.34776C8.39992 8.49914 7.99778 8.53874 7.60982 8.46157C7.22186 8.3844 6.86549 8.19392 6.58579 7.91422C6.30608 7.63451 6.1156 7.27814 6.03843 6.89018C5.96126 6.50222 6.00087 6.10009 6.15224 5.73463C6.30362 5.36918 6.55996 5.05683 6.88886 4.83706Z" fill="black"/>
</svg>
