<svg width="32" height="33" viewBox="0 0 32 33" fill="none" xmlns="http://www.w3.org/2000/svg">
<path fill-rule="evenodd" clip-rule="evenodd" d="M8.22202 4.85943C10.5243 3.32109 13.2311 2.5 16 2.5C19.713 2.5 23.274 3.975 25.8995 6.6005C28.525 9.22601 30 12.787 30 16.5C30 19.2689 29.1789 21.9757 27.6406 24.278C26.1022 26.5803 23.9157 28.3747 21.3576 29.4343C18.7994 30.4939 15.9845 30.7712 13.2687 30.231C10.553 29.6908 8.05845 28.3574 6.10051 26.3995C4.14258 24.4416 2.80921 21.947 2.26901 19.2313C1.72882 16.5155 2.00607 13.7006 3.06569 11.1424C4.12532 8.58427 5.91973 6.39777 8.22202 4.85943ZM9.33316 26.4776C11.3066 27.7962 13.6266 28.5 16 28.5C19.1826 28.5 22.2348 27.2357 24.4853 24.9853C26.7357 22.7348 28 19.6826 28 16.5C28 14.1266 27.2962 11.8065 25.9776 9.83316C24.6591 7.85977 22.7849 6.3217 20.5922 5.41345C18.3995 4.50519 15.9867 4.26755 13.6589 4.73058C11.3312 5.1936 9.19296 6.33649 7.51472 8.01472C5.83649 9.69295 4.69361 11.8311 4.23058 14.1589C3.76756 16.4867 4.0052 18.8995 4.91345 21.0922C5.8217 23.2849 7.35977 25.1591 9.33316 26.4776ZM10.1111 11.9213C10.5222 11.6466 11.0056 11.5 11.5 11.5C11.8291 11.4973 12.1553 11.5601 12.4599 11.6848C12.7644 11.8095 13.041 11.9936 13.2737 12.2263C13.5064 12.4589 13.6904 12.7356 13.8151 13.0401C13.9398 13.3446 14.0027 13.6709 14 14C14 14.4944 13.8534 14.9778 13.5787 15.3889C13.304 15.8 12.9135 16.1204 12.4567 16.3097C11.9999 16.4989 11.4972 16.5484 11.0123 16.4519C10.5273 16.3555 10.0819 16.1174 9.73224 15.7677C9.38261 15.4181 9.14451 14.9726 9.04805 14.4877C8.95158 14.0027 9.00109 13.5001 9.19031 13.0433C9.37953 12.5864 9.69996 12.196 10.1111 11.9213ZM20.5 11.5C20.0056 11.5 19.5222 11.6466 19.1111 11.9213C18.7 12.196 18.3795 12.5864 18.1903 13.0433C18.0011 13.5001 17.9516 14.0027 18.048 14.4877C18.1445 14.9726 18.3826 15.4181 18.7322 15.7677C19.0819 16.1174 19.5273 16.3555 20.0123 16.4519C20.4972 16.5484 20.9999 16.4989 21.4567 16.3097C21.9135 16.1204 22.304 15.8 22.5787 15.3889C22.8534 14.9778 23 14.4944 23 14C23.0027 13.6709 22.9398 13.3446 22.8151 13.0401C22.6904 12.7356 22.5064 12.4589 22.2737 12.2263C22.041 11.9936 21.7644 11.8095 21.4599 11.6848C21.1553 11.5601 20.8291 11.4973 20.5 11.5ZM11.9701 23.4261C10.7425 22.7255 9.71885 21.717 9.00001 20.5H23C22.2812 21.717 21.2575 22.7255 20.0299 23.4261C18.8024 24.1267 17.4134 24.4952 16 24.4952C14.5866 24.4952 13.1976 24.1267 11.9701 23.4261Z" fill="#115EF5"/>
</svg>
