<svg width="32" height="32" viewBox="0 0 32 32" fill="none" xmlns="http://www.w3.org/2000/svg">
<path fill-rule="evenodd" clip-rule="evenodd" d="M4 4H28C28.5302 4.00061 29.0386 4.21152 29.4135 4.58646C29.7885 4.9614 29.9994 5.46975 30 6V28C29.9994 28.5302 29.7885 29.0386 29.4135 29.4135C29.0386 29.7885 28.5302 29.9994 28 30H4C3.46975 29.9994 2.9614 29.7885 2.58646 29.4135C2.21152 29.0386 2.00061 28.5302 2 28V6C2.00061 5.46975 2.21152 4.9614 2.58646 4.58646C2.9614 4.21152 3.46975 4.00061 4 4ZM15 6H4V28H15V6ZM17 6V28H28V6H17ZM12 8H7V10H12V8ZM12 12H7V14H12V12ZM7 16H12V18H7V16ZM25 8H20V10H25V8ZM20 12H25V14H20V12ZM25 16H20V18H25V16Z" fill="#111111"/>
</svg>
