<svg width="32" height="32" viewBox="0 0 32 32" fill="none" xmlns="http://www.w3.org/2000/svg">
<path fill-rule="evenodd" clip-rule="evenodd" d="M10.5555 7.41014C11.1311 7.79473 11.8078 8 12.5 8C13.4279 7.99889 14.3175 7.62978 14.9736 6.97365C15.6298 6.31751 15.9989 5.42792 16 4.5C16 3.80777 15.7947 3.13108 15.4101 2.55551C15.0256 1.97993 14.4789 1.53133 13.8394 1.26642C13.1999 1.00152 12.4961 0.932205 11.8172 1.06725C11.1383 1.2023 10.5146 1.53564 10.0251 2.02513C9.53564 2.51461 9.2023 3.13825 9.06725 3.81719C8.9322 4.49612 9.00152 5.19985 9.26642 5.83939C9.53133 6.47893 9.97993 7.02556 10.5555 7.41014ZM11.6666 3.2528C11.9133 3.08797 12.2033 3 12.5 3C12.8977 3.00045 13.279 3.15863 13.5602 3.43984C13.8414 3.72105 13.9996 4.10231 14 4.5C14 4.79667 13.912 5.08668 13.7472 5.33336C13.5824 5.58003 13.3481 5.77229 13.074 5.88582C12.7999 5.99935 12.4983 6.02906 12.2074 5.97118C11.9164 5.9133 11.6491 5.77044 11.4393 5.56066C11.2296 5.35088 11.0867 5.08361 11.0288 4.79264C10.9709 4.50167 11.0007 4.20007 11.1142 3.92598C11.2277 3.65189 11.42 3.41762 11.6666 3.2528ZM28.7385 16.0352C28.9368 15.9815 29.1468 15.9902 29.34 16.06C29.5333 16.1299 29.7003 16.2576 29.8184 16.4258C29.9365 16.594 29.9999 16.7945 30 17V29C30 29.2652 29.8946 29.5196 29.7071 29.7071C29.5196 29.8946 29.2652 30 29 30H19C18.81 29.9999 18.6239 29.9458 18.4636 29.8438C18.3032 29.7418 18.1753 29.5962 18.0947 29.4241C18.0141 29.2521 17.9842 29.0606 18.0085 28.8721C18.0328 28.6836 18.1103 28.506 18.2319 28.36L22.99 22.6509L14.9089 21.1818L16 23.8V30H14V24.2L12.5652 20.7554L9 20.1074V30H7V19.7437L2 18.8345V12.4336L7.01 9.4277C7.47636 9.14792 8.00996 9.00009 8.5538 9H12.6138C13.2239 9.002 13.8191 9.18912 14.3206 9.53665C14.8221 9.88417 15.2064 10.3757 15.4225 10.9463L19.0245 19.8975L24.46 20.8857L28.2316 16.36C28.3632 16.2023 28.5402 16.0889 28.7385 16.0352ZM4 13.5664V17.1655L7 17.7112V11.7664L4 13.5664ZM9 11V18.0747L16.6991 19.4746L13.5591 11.6709C13.489 11.4759 13.3608 11.307 13.1918 11.1871C13.0227 11.0671 12.821 11.0018 12.6138 11H9ZM21.1353 28H28V19.7617L21.1353 28Z" fill="#111111"/>
</svg>
