<svg width="26" height="26" viewBox="0 0 26 26" fill="none" xmlns="http://www.w3.org/2000/svg">
<path fill-rule="evenodd" clip-rule="evenodd" d="M1.77772 7.32588C2.43552 7.76541 3.20888 8 4 8C5.06087 8 6.07828 7.57858 6.82843 6.82843C7.57858 6.07828 8 5.06087 8 4C8 3.20888 7.76541 2.43552 7.32588 1.77772C6.88635 1.11992 6.26164 0.607234 5.53074 0.304484C4.79983 0.00173308 3.99556 -0.0774802 3.21964 0.0768607C2.44372 0.231202 1.73098 0.612164 1.17157 1.17157C0.612164 1.73098 0.231202 2.44372 0.0768607 3.21964C-0.0774802 3.99556 0.00173308 4.79983 0.304484 5.53074C0.607234 6.26164 1.11992 6.88635 1.77772 7.32588ZM2.88886 2.33706C3.21776 2.1173 3.60444 2 4 2C4.53044 2 5.03914 2.21072 5.41422 2.58579C5.78929 2.96086 6 3.46957 6 4C6 4.39556 5.8827 4.78224 5.66294 5.11114C5.44318 5.44004 5.13082 5.69639 4.76537 5.84776C4.39992 5.99914 3.99778 6.03874 3.60982 5.96157C3.22186 5.8844 2.86549 5.69392 2.58579 5.41422C2.30608 5.13451 2.1156 4.77814 2.03843 4.39018C1.96126 4.00222 2.00087 3.60009 2.15224 3.23463C2.30362 2.86918 2.55996 2.55683 2.88886 2.33706ZM12 3H25V5H12V3ZM12 21H25V23H12V21ZM14 12H1V14H14V12ZM4 26C3.20888 26 2.43552 25.7654 1.77772 25.3259C1.11992 24.8864 0.607234 24.2616 0.304484 23.5307C0.00173308 22.7998 -0.0774802 21.9956 0.0768607 21.2196C0.231202 20.4437 0.612164 19.731 1.17157 19.1716C1.73098 18.6122 2.44372 18.2312 3.21964 18.0769C3.99556 17.9225 4.79983 18.0017 5.53074 18.3045C6.26164 18.6072 6.88635 19.1199 7.32588 19.7777C7.76541 20.4355 8 21.2089 8 22C8 23.0609 7.57858 24.0783 6.82843 24.8284C6.07828 25.5786 5.06087 26 4 26ZM4 20C3.60444 20 3.21776 20.1173 2.88886 20.3371C2.55996 20.5568 2.30362 20.8692 2.15224 21.2346C2.00087 21.6001 1.96126 22.0022 2.03843 22.3902C2.1156 22.7781 2.30608 23.1345 2.58579 23.4142C2.86549 23.6939 3.22186 23.8844 3.60982 23.9616C3.99778 24.0387 4.39992 23.9991 4.76537 23.8478C5.13082 23.6964 5.44318 23.44 5.66294 23.1111C5.8827 22.7822 6 22.3956 6 22C6 21.4696 5.78929 20.9609 5.41422 20.5858C5.03914 20.2107 4.53044 20 4 20ZM19.7777 16.3259C20.4355 16.7654 21.2089 17 22 17C23.0609 17 24.0783 16.5786 24.8284 15.8284C25.5786 15.0783 26 14.0609 26 13C26 12.2089 25.7654 11.4355 25.3259 10.7777C24.8864 10.1199 24.2616 9.60723 23.5307 9.30448C22.7998 9.00173 21.9956 8.92252 21.2196 9.07686C20.4437 9.2312 19.731 9.61216 19.1716 10.1716C18.6122 10.731 18.2312 11.4437 18.0769 12.2196C17.9225 12.9956 18.0017 13.7998 18.3045 14.5307C18.6072 15.2616 19.1199 15.8864 19.7777 16.3259ZM20.8889 11.3371C21.2178 11.1173 21.6044 11 22 11C22.5304 11 23.0391 11.2107 23.4142 11.5858C23.7893 11.9609 24 12.4696 24 13C24 13.3956 23.8827 13.7822 23.6629 14.1111C23.4432 14.44 23.1308 14.6964 22.7654 14.8478C22.3999 14.9991 21.9978 15.0387 21.6098 14.9616C21.2219 14.8844 20.8655 14.6939 20.5858 14.4142C20.3061 14.1345 20.1156 13.7781 20.0384 13.3902C19.9613 13.0022 20.0009 12.6001 20.1522 12.2346C20.3036 11.8692 20.56 11.5568 20.8889 11.3371Z" fill="#115EF5"/>
</svg>
