<svg width="32" height="32" viewBox="0 0 32 32" fill="none" xmlns="http://www.w3.org/2000/svg">
<path fill-rule="evenodd" clip-rule="evenodd" d="M26.0982 16L28.8931 18.4536C29.2403 18.7589 29.471 19.1751 29.546 19.6313C29.621 20.0875 29.5357 20.5557 29.3046 20.9561L26.944 25.0439C26.7131 25.4446 26.3504 25.7528 25.9177 25.916C25.485 26.0791 25.0091 26.0871 24.5712 25.9385L22.1518 25.1201C21.7276 25.4017 21.2842 25.6535 20.8251 25.8735L20.3214 28.3921C20.2307 28.8455 19.9858 29.2535 19.6282 29.5466C19.2707 29.8398 18.8226 30 18.3603 30H13.6403C13.1778 30.0001 12.7297 29.8399 12.372 29.5467C12.0144 29.2536 11.7694 28.8456 11.6788 28.3921L11.1751 25.8735C10.7208 25.6513 10.2824 25.3979 9.86306 25.1152L7.42896 25.9385C6.99103 26.0871 6.51513 26.0791 6.08242 25.916C5.64971 25.7528 5.287 25.4446 5.05616 25.0439L2.69556 20.9561C2.46446 20.5556 2.37921 20.0875 2.4543 19.6312C2.52939 19.175 2.7602 18.7589 3.10746 18.4536L5.02806 16.7656C5.01026 16.5127 5.00026 16.2578 5.00026 16C5.00026 15.7848 5.01516 15.5735 5.03009 15.3619C5.03288 15.3224 5.03567 15.2828 5.03836 15.2432L3.10746 13.5464C2.7602 13.2411 2.52939 12.825 2.4543 12.3688C2.37921 11.9125 2.46446 11.4444 2.69556 11.0439L5.05616 6.9561C5.287 6.55539 5.64971 6.24718 6.08242 6.08404C6.51513 5.9209 6.99103 5.91293 7.42896 6.0615L9.84836 6.88C10.2727 6.59832 10.7161 6.34655 11.1755 6.1265L11.6792 3.6079C11.7698 3.15451 12.0147 2.74654 12.3723 2.45339C12.7298 2.16024 13.1779 2.00002 13.6403 2H16.0003V4H13.6403L12.9297 7.5508C11.9407 7.91017 11.0222 8.4396 10.2156 9.1152L6.78886 7.9561L4.42776 12.0439L7.14606 14.4331C6.96427 15.468 6.96664 16.5269 7.15306 17.561L4.42866 19.9561L6.78866 24.0439L10.2355 22.8779C11.0365 23.5529 11.9482 24.0845 12.9303 24.4492L13.6403 28H18.3603L19.0709 24.4492C20.0599 24.0898 20.9784 23.5604 21.7852 22.8848L25.2125 24.0439L27.5725 19.9561L24.7803 17.5044L26.0982 16ZM20.0003 2V12H22.0003V2H20.0003ZM24.0003 2V12H26.0003V2H24.0003ZM28.0003 12V2H30.0003V12H28.0003ZM16.0003 20C15.4717 20.012 14.9462 19.9167 14.4555 19.7199C13.9647 19.5232 13.519 19.229 13.1451 18.8551C12.7713 18.4813 12.4771 18.0355 12.2803 17.5448C12.0835 17.0541 11.9883 16.5286 12.0003 16C11.9883 15.4714 12.0835 14.9459 12.2803 14.4552C12.4771 13.9645 12.7713 13.5187 13.1451 13.1449C13.519 12.771 13.9647 12.4768 14.4555 12.2801C14.9462 12.0833 15.4717 11.988 16.0003 12V10C14.8136 10 13.6535 10.3519 12.6668 11.0112C11.6801 11.6705 10.9111 12.6075 10.457 13.7039C10.0029 14.8003 9.88404 16.0067 10.1156 17.1705C10.3471 18.3344 10.9185 19.4035 11.7576 20.2426C12.5967 21.0818 13.6658 21.6532 14.8297 21.8847C15.9936 22.1162 17.2 21.9974 18.2964 21.5433C19.3927 21.0892 20.3298 20.3201 20.9891 19.3334C21.6484 18.3467 22.0003 17.1867 22.0003 16H20.0003C20.0122 16.5286 19.917 17.0541 19.7202 17.5448C19.5234 18.0355 19.2292 18.4813 18.8554 18.8551C18.4815 19.229 18.0358 19.5232 17.5451 19.7199C17.0543 19.9167 16.5288 20.012 16.0003 20Z" fill="#111111"/>
</svg>
