<svg width="32" height="32" viewBox="0 0 32 32" fill="none" xmlns="http://www.w3.org/2000/svg">
<g clip-path="url(#clip0_810_105569)">
<path d="M9 8C9.55228 8 10 7.55228 10 7C10 6.44772 9.55228 6 9 6C8.44772 6 8 6.44772 8 7C8 7.55228 8.44772 8 9 8Z" fill="#111111"/>
<path d="M27 22V18C27 17.4696 26.7893 16.9609 26.4142 16.5858C26.0391 16.2107 25.5304 16 25 16H17V12H26C26.5304 12 27.0391 11.7893 27.4142 11.4142C27.7893 11.0391 28 10.5304 28 10V4C28 3.46957 27.7893 2.96086 27.4142 2.58579C27.0391 2.21071 26.5304 2 26 2H6C5.46957 2 4.96086 2.21071 4.58579 2.58579C4.21071 2.96086 4 3.46957 4 4V10C4 10.5304 4.21071 11.0391 4.58579 11.4142C4.96086 11.7893 5.46957 12 6 12H15V16H7C6.46957 16 5.96086 16.2107 5.58579 16.5858C5.21071 16.9609 5 17.4696 5 18V22H2V30H10V22H7V18H15V22H12V30H20V22H17V18H25V22H22V30H30V22H27ZM8 28H4V24H8V28ZM18 24V28H14V24H18ZM6 10V4H26V10H6ZM28 28H24V24H28V28Z" fill="#111111"/>
</g>
<defs>
<clipPath id="clip0_810_105569">
<rect width="32" height="32" fill="white"/>
</clipPath>
</defs>
</svg>
