<svg width="32" height="32" viewBox="0 0 32 32" fill="none" xmlns="http://www.w3.org/2000/svg">
<path d="M12 10H26C26.5302 9.99934 27.0386 9.78841 27.4135 9.41348C27.7884 9.03855 27.9993 8.53023 28 8V4C27.9993 3.46977 27.7884 2.96145 27.4135 2.58652C27.0386 2.21159 26.5302 2.00066 26 2H12C11.4698 2.00066 10.9614 2.21159 10.5865 2.58652C10.2116 2.96145 10.0007 3.46977 10 4V5H6V2H4V25C4.00066 25.5302 4.21159 26.0386 4.58652 26.4135C4.96145 26.7884 5.46977 26.9993 6 27H10V28C10.0007 28.5302 10.2116 29.0386 10.5865 29.4135C10.9614 29.7884 11.4698 29.9993 12 30H26C26.5302 29.9993 27.0386 29.7884 27.4135 29.4135C27.7884 29.0386 27.9993 28.5302 28 28V24C27.9993 23.4698 27.7884 22.9614 27.4135 22.5865C27.0386 22.2116 26.5302 22.0007 26 22H12C11.4698 22.0007 10.9614 22.2116 10.5865 22.5865C10.2116 22.9614 10.0007 23.4698 10 24V25H6V17H10V18C10.0007 18.5302 10.2116 19.0386 10.5865 19.4135C10.9614 19.7884 11.4698 19.9993 12 20H26C26.5302 19.9993 27.0386 19.7884 27.4135 19.4135C27.7884 19.0386 27.9993 18.5302 28 18V14C27.9993 13.4698 27.7884 12.9614 27.4135 12.5865C27.0386 12.2116 26.5302 12.0007 26 12H12C11.4698 12.0007 10.9614 12.2116 10.5865 12.5865C10.2116 12.9614 10.0007 13.4698 10 14V15H6V7H10V8C10.0007 8.53023 10.2116 9.03855 10.5865 9.41348C10.9614 9.78841 11.4698 9.99934 12 10V10ZM12 4H26L26.0012 8H12V4ZM12 24H26L26.0012 28H12V24ZM12 14H26L26.0012 18H12V14Z" fill="#111111"/>
</svg>
