<svg width="32" height="32" viewBox="0 0 32 32" fill="none" xmlns="http://www.w3.org/2000/svg">
<path fill-rule="evenodd" clip-rule="evenodd" d="M27 11V6H17V11H27ZM17 4H27C27.5304 4 28.0391 4.21071 28.4142 4.58579C28.7893 4.96086 29 5.46957 29 6V11C29 11.5304 28.7893 12.0391 28.4142 12.4142C28.0391 12.7893 27.5304 13 27 13H17C16.4696 13 15.9609 12.7893 15.5858 12.4142C15.2107 12.0391 15 11.5304 15 11V6C15 5.46957 15.2107 4.96086 15.5858 4.58579C15.9609 4.21071 16.4696 4 17 4ZM16 25V17H6V25H16ZM6 15H16C16.5304 15 17.0391 15.2107 17.4142 15.5858C17.7893 15.9609 18 16.4696 18 17V25C18 25.5304 17.7893 26.0391 17.4142 26.4142C17.0391 26.7893 16.5304 27 16 27H6C5.46957 27 4.96086 26.7893 4.58579 26.4142C4.21071 26.0391 4 25.5304 4 25V17C4 16.4696 4.21071 15.9609 4.58579 15.5858C4.96086 15.2107 5.46957 15 6 15ZM27 17V22H22V17H27ZM27 15H22C21.4696 15 20.9609 15.2107 20.5858 15.5858C20.2107 15.9609 20 16.4696 20 17V22C20 22.5304 20.2107 23.0391 20.5858 23.4142C20.9609 23.7893 21.4696 24 22 24H27C27.5304 24 28.0391 23.7893 28.4142 23.4142C28.7893 23.0391 29 22.5304 29 22V17C29 16.4696 28.7893 15.9609 28.4142 15.5858C28.0391 15.2107 27.5304 15 27 15ZM11 11V6H6V11H11ZM6 4H11C11.5304 4 12.0391 4.21071 12.4142 4.58579C12.7893 4.96086 13 5.46957 13 6V11C13 11.5304 12.7893 12.0391 12.4142 12.4142C12.0391 12.7893 11.5304 13 11 13H6C5.46957 13 4.96086 12.7893 4.58579 12.4142C4.21071 12.0391 4 11.5304 4 11V6C4 5.46957 4.21071 4.96086 4.58579 4.58579C4.96086 4.21071 5.46957 4 6 4Z" fill="#111111"/>
</svg>
