<svg width="28" height="26" viewBox="0 0 28 26" fill="none" xmlns="http://www.w3.org/2000/svg">
<path fill-rule="evenodd" clip-rule="evenodd" d="M26 0H2C1.46973 0.000529477 0.961329 0.211413 0.586371 0.586371C0.211413 0.961329 0.000529477 1.46973 0 2V22C0.000608734 22.5302 0.211518 23.0386 0.586459 23.4135C0.9614 23.7885 1.46975 23.9994 2 24H12V22H2V8H26V11H28V2C27.9994 1.46975 27.7885 0.9614 27.4135 0.586459C27.0386 0.211518 26.5302 0.000608734 26 0ZM26 6H2V2H26V6ZM28 18H25.8989C25.77 17.3741 25.5214 16.7789 25.167 16.2471L26.657 14.7571L25.243 13.3431L23.753 14.8331C23.2212 14.4786 22.626 14.2301 22 14.1011V12H20V14.1011C19.3741 14.23 18.7789 14.4786 18.2471 14.833L16.7571 13.343L15.3431 14.757L16.8331 16.247C16.4786 16.7788 16.2301 17.374 16.1011 18H14V20H16.1011C16.23 20.6259 16.4786 21.2211 16.833 21.7529L15.343 23.2429L16.757 24.6569L18.247 23.1669C18.7788 23.5214 19.374 23.7699 20 23.8989V26H22V23.8989C22.6259 23.77 23.2211 23.5214 23.7529 23.167L25.2429 24.657L26.6569 23.243L25.1669 21.753C25.5214 21.2212 25.7699 20.626 25.8989 20H28V18ZM21 22C20.4067 22 19.8266 21.8241 19.3333 21.4944C18.8399 21.1648 18.4554 20.6962 18.2284 20.1481C18.0013 19.5999 17.9419 18.9967 18.0576 18.4147C18.1734 17.8328 18.4591 17.2982 18.8787 16.8787C19.2982 16.4591 19.8328 16.1734 20.4147 16.0576C20.9967 15.9419 21.5999 16.0013 22.1481 16.2284C22.6962 16.4554 23.1648 16.8399 23.4944 17.3333C23.8241 17.8266 24 18.4067 24 19C23.9991 19.7954 23.6828 20.5579 23.1204 21.1204C22.5579 21.6828 21.7954 21.9991 21 22ZM19 4C19 4.55228 18.5523 5 18 5C17.4477 5 17 4.55228 17 4C17 3.44772 17.4477 3 18 3C18.5523 3 19 3.44772 19 4ZM21 5C21.5523 5 22 4.55228 22 4C22 3.44772 21.5523 3 21 3C20.4477 3 20 3.44772 20 4C20 4.55228 20.4477 5 21 5ZM25 4C25 4.55228 24.5523 5 24 5C23.4477 5 23 4.55228 23 4C23 3.44772 23.4477 3 24 3C24.5523 3 25 3.44772 25 4Z" fill="#111111"/>
</svg>
