<svg width="32" height="32" viewBox="0 0 32 32" fill="none" xmlns="http://www.w3.org/2000/svg">
<path fill-rule="evenodd" clip-rule="evenodd" d="M16 4C16.3956 4 16.7822 4.1173 17.1111 4.33706C17.44 4.55682 17.6964 4.86918 17.8478 5.23463C17.9991 5.60009 18.0387 6.00222 17.9616 6.39018C17.8844 6.77814 17.6939 7.13451 17.4142 7.41421C17.1345 7.69392 16.7781 7.8844 16.3902 7.96157C16.0022 8.03874 15.6001 7.99913 15.2346 7.84776C14.8692 7.69638 14.5568 7.44004 14.3371 7.11114C14.1173 6.78224 14 6.39556 14 6C14 5.46957 14.2107 4.96086 14.5858 4.58579C14.9609 4.21071 15.4696 4 16 4ZM16 2C15.2089 2 14.4355 2.2346 13.7777 2.67412C13.1199 3.11365 12.6072 3.73836 12.3045 4.46927C12.0017 5.20017 11.9225 6.00444 12.0769 6.78036C12.2312 7.55629 12.6122 8.26902 13.1716 8.82843C13.731 9.38784 14.4437 9.7688 15.2196 9.92314C15.9956 10.0775 16.7998 9.99827 17.5307 9.69552C18.2616 9.39277 18.8864 8.88008 19.3259 8.22228C19.7654 7.56448 20 6.79113 20 6C20 4.93913 19.5786 3.92172 18.8284 3.17157C18.0783 2.42143 17.0609 2 16 2ZM6 24C6.39556 24 6.78224 24.1173 7.11114 24.3371C7.44004 24.5568 7.69639 24.8692 7.84776 25.2346C7.99914 25.6001 8.03874 26.0022 7.96157 26.3902C7.8844 26.7781 7.69392 27.1345 7.41422 27.4142C7.13451 27.6939 6.77814 27.8844 6.39018 27.9616C6.00222 28.0387 5.60009 27.9991 5.23463 27.8478C4.86918 27.6964 4.55683 27.44 4.33706 27.1111C4.1173 26.7822 4 26.3956 4 26C4 25.4696 4.21072 24.9609 4.58579 24.5858C4.96086 24.2107 5.46957 24 6 24ZM6 22C5.20888 22 4.43552 22.2346 3.77772 22.6741C3.11992 23.1136 2.60723 23.7384 2.30448 24.4693C2.00173 25.2002 1.92252 26.0044 2.07686 26.7804C2.2312 27.5563 2.61216 28.269 3.17157 28.8284C3.73098 29.3878 4.44372 29.7688 5.21964 29.9231C5.99556 30.0775 6.79983 29.9983 7.53074 29.6955C8.26164 29.3928 8.88635 28.8801 9.32588 28.2223C9.76541 27.5645 10 26.7911 10 26C10 24.9391 9.57858 23.9217 8.82843 23.1716C8.07828 22.4214 7.06087 22 6 22ZM27.1111 4.33706C26.7822 4.1173 26.3956 4 26 4C25.4696 4 24.9609 4.21071 24.5858 4.58579C24.2107 4.96086 24 5.46957 24 6C24 6.39556 24.1173 6.78224 24.3371 7.11114C24.5568 7.44004 24.8692 7.69638 25.2346 7.84776C25.6001 7.99913 26.0022 8.03874 26.3902 7.96157C26.7781 7.8844 27.1345 7.69392 27.4142 7.41421C27.6939 7.13451 27.8844 6.77814 27.9616 6.39018C28.0387 6.00222 27.9991 5.60009 27.8478 5.23463C27.6964 4.86918 27.44 4.55682 27.1111 4.33706ZM23.7777 2.67412C24.4355 2.2346 25.2089 2 26 2C27.0609 2 28.0783 2.42143 28.8284 3.17157C29.5786 3.92172 30 4.93913 30 6C30 6.79113 29.7654 7.56448 29.3259 8.22228C28.8864 8.88008 28.2616 9.39277 27.5307 9.69552C26.7998 9.99827 25.9956 10.0775 25.2196 9.92314C24.4437 9.7688 23.731 9.38784 23.1716 8.82843C22.6122 8.26902 22.2312 7.55629 22.0769 6.78036C21.9225 6.00444 22.0017 5.20017 22.3045 4.46927C22.6072 3.73836 23.1199 3.11365 23.7777 2.67412ZM18 28H14V24H18V28ZM20 22H12V30H20V22ZM27 17V22.14C27.9427 22.3834 28.7642 22.9622 29.3106 23.768C29.857 24.5738 30.0908 25.5512 29.9681 26.517C29.8454 27.4828 29.3747 28.3707 28.6442 29.0143C27.9137 29.6579 26.9736 30.013 26 30.013C25.0264 30.013 24.0863 29.6579 23.3558 29.0143C22.6253 28.3707 22.1546 27.4828 22.0319 26.517C21.9092 25.5512 22.143 24.5738 22.6894 23.768C23.2358 22.9622 24.0573 22.3834 25 22.14V17H7C6.46957 17 5.96086 16.7893 5.58579 16.4142C5.21071 16.0391 5 15.5304 5 15V10H2V2H10V10H7V15H25C25.5304 15 26.0391 15.2107 26.4142 15.5858C26.7893 15.9609 27 16.4696 27 17ZM8 4H4V8H8V4ZM24.8889 27.6629C25.2178 27.8827 25.6044 28 26 28C26.5304 28 27.0391 27.7893 27.4142 27.4142C27.7893 27.0391 28 26.5304 28 26C28 25.6044 27.8827 25.2178 27.6629 24.8889C27.4432 24.56 27.1308 24.3036 26.7654 24.1522C26.3999 24.0009 25.9978 23.9613 25.6098 24.0384C25.2219 24.1156 24.8655 24.3061 24.5858 24.5858C24.3061 24.8655 24.1156 25.2219 24.0384 25.6098C23.9613 25.9978 24.0009 26.3999 24.1522 26.7654C24.3036 27.1308 24.56 27.4432 24.8889 27.6629Z" fill="#111111"/>
</svg>
