<svg width="32" height="32" viewBox="0 0 32 32" fill="none" xmlns="http://www.w3.org/2000/svg">
<path fill-rule="evenodd" clip-rule="evenodd" d="M23 10H28C28.5302 10.0006 29.0386 10.2115 29.4135 10.5865C29.7885 10.9614 29.9994 11.4698 30 12V28C29.9994 28.5302 29.7885 29.0386 29.4135 29.4135C29.0386 29.7885 28.5302 29.9994 28 30H4C3.46975 29.9994 2.9614 29.7885 2.58646 29.4135C2.21152 29.0386 2.00061 28.5302 2 28V12C2.00061 11.4698 2.21152 10.9614 2.58646 10.5865C2.9614 10.2115 3.46975 10.0006 4 10H9V6C9.00061 5.46975 9.21152 4.9614 9.58646 4.58646C9.9614 4.21152 10.4698 4.00061 11 4H21C21.5302 4.00061 22.0386 4.21152 22.4135 4.58646C22.7885 4.9614 22.9994 5.46975 23 6V10ZM4 12V28H9V24H7V22H9V20H7V18H9V16H7V14H9V12H4ZM11 28H21V6H11V28ZM23 28H28V12H23V14H25V16H23V18H25V20H23V22H25V24H23V28ZM14 8H18V10H14V8ZM18 12H14V14H18V12ZM14 16H18V18H14V16Z" fill="#111111"/>
</svg>
